<mxfile host="app.diagrams.net" modified="2024-03-19T08:01:42.321Z" agent="Mozilla/5.0 (Windows NT 10.0; Win64; x64; rv:123.0) Gecko/20100101 Firefox/123.0" etag="v4YlVqyQ6GR28C0dE-2c" version="24.0.7" type="github">
  <diagram name="Page-1" id="pI_lKoHBWFUDrALLHAcz">
    <mxGraphModel dx="1434" dy="754" grid="1" gridSize="10" guides="1" tooltips="1" connect="1" arrows="1" fold="1" page="1" pageScale="1" pageWidth="850" pageHeight="1100" math="0" shadow="0">
      <root>
        <mxCell id="0" />
        <mxCell id="1" parent="0" />
        <mxCell id="vyiDZXKF1TPVWW1QtQVw-1" value="" style="shape=image;verticalLabelPosition=bottom;labelBackgroundColor=default;verticalAlign=top;aspect=fixed;imageAspect=0;image=data:image/png,iVBORw0KGgoAAAANSUhEUgAAA5wAAAI7CAYAAACA3JQzAAAgAElEQVR4Xux9f7BVV3n2e+HmXlBGaaARG9OQNoxmLBOS6DQwVqAkKNROTJOCUzUQihc/zQ+utE5sg0DJ0G8mU+9VQxnumObHX4qjZhK9fLS1QNJePtpmDCGVz4GMJGNDBsWSiiTXFO531j5nn7vPPnuvd693n3X2Wns/e4Yx3rP2Xns97/O+633Wr90zUbtIc73++us0ffp0XZHE3/7nf/4n+Htvb6/xvdI6VUWvvvoqzZkzp2t1op081LAnjxF4q8dIyiH4J889KbaIt/awBW/tYQve2sMWvLWHLXhrD1vw1h62Ud72nD9/Xis4x8fHqb+/n3+bWIk8BpTWqV7hzJkzNGvWLOP3ldaJdvJQS7GFPe1hC97awxa8tYcteGsPW/DWHrbgrT1swVt72IK39rCtIm97MMNZJ5R0lD+PQ0rrxEgXHwSk2MKe9rAFb+1hC97awxa8tYcteGsPW/DWHrbgrT1swVt72BbNWwjOhm0hUPQkL5qovAu2loA9YU+FAHjLe47UV5AY2MMWvLWHLXhrD1vw1h624K09bMFbe9hGeQvBCcHJMw2JeyaMkLjzMGGvqh4jKYfQYfLck2KLRM8etuCtPWzBW3vYgrf2sAVv7WFbNG8hOCE4eXZDcGbCCAktDxMEJwSnQkDqK0V3mDzDW0ugnXrEYE+eUVIOIXG3hy14aw9b8NYetkXzFoITgpNnNwRnJoyQGPAwQXBCcEJw8n5SdGLAvyGEtQlGsCePFvpPHiP0n+g/fe4/ITghOPkoB8GZCSN0mDxM6DDRYfrcYfIMhxAzwQhCjEcL/QqPEfoV9CvoV3g/KTreQnBCcPIsheDMhBESAx4mJAZIDJAY8H5SdGLAvyGEtQlGsCePFvpPHiP0n+g/fe4/ITghOPkoB8GZCSN0mDxM6DDRYfrcYfIMhxAzwQhCjEcL/QqPEfoV9CvoV3g/KTreQnBCcPIsheDMhBESAx4mJAZIDJAY8H5SdGLAvyGEtQlGsCePFvpPHiP0n+g/fe4/ITghOPkoB8GZCSN0mDxM6DDRYfrcYfIMhxAzwQhCjEcL/QqPEfoV9CvoV3g/KTreQnBCcPIsheDMhBESAx4mJAZIDJAY8H5SdGLAvyGEtQlGsCePFvpPHiP0n+g/fe4/ITghOPkoB8GZCSN0mDxM6DDRYfrcYfIMhxAzwQhCjEcL/QqPEfoV9CvoV3g/KTreQnBCcPIsheDMhBESAx4mJAZIDJAY8H5SdGLAvyGEtQlGsCePFvpPHiP0n+g/fe4/e958880JnQnfeOMNmjZtGu8JsRJFBdjTp0/TZZddZvy+aKcesjz2/MUvfkF9fX3GNlE3/PSnP6Vf//VfN77XN3uinXoTK3u+5S1voUsuucSIC3l4mycBksahc+fOGbdRAVJUO8FbnrdF9J9vfetbRTyS8lYXby9evEi1PCMRKPCWD2d54lDZ/LO/vz8RMBu81VlG8flXv/oV9fb28gaMlYA9ecjKxtu0Fqt2Xn755dTT08ODEinhW34b+mcpBOfjjz9OBw8epCNHjgT/rr32Wpo7dy4tXryY7r777kyG9NWAmRpXMFFvu+02evLJJ01fFeWBQAsCN954Iz3zzDNGqBSV0EoTIPiKkXlROAUBia+oR0l5q+s/d+7cSRs3boStgEBuBH75y18mDl7b4K3uZZ977jl6//vfn7s9eAAQGB0dpZtvvtkICF/1itdLak+ePEl33nknHThwIBCZCxYsCISm+rv6p0So+tsjjzwS/K/uko46FZXQ+rS04qMf/Sg9//zz9LnPfc7IqVAYCIQIPPzwwzR9+nQaGxszAsU3/4SvGJkXhRMQkPqKepSNfuWrX/0q3XPPPTQ8PExTp06FzYCAMQJPP/00ffOb36Tx8fFEwWmDt5zgvO666+izn/0svec97zFuD24AAqdOnaIdO3bQvn37aPny5UaA+KpXvBWcSmTeeuut9Pa3v50effRRWrJkSZvB1CiUSuBeeukl+s53vhP8d9rlqwGNWForXEQ7Fe5qBNJULJi2DeXLi8Dtt99Or7zyijGHfBSc8JXy8rgbLZP6im3BmSYWuoEJ6vAbgYceeihYreaa4JSIBb8tgbfvFAIvvPACzZ8/H4IzCmgRAoWr8+zZs6RGl5TYVMJz5syZqRxQZZXgUUttf/zjH6eW5epMq8C3hLaIdkJwdipEVfc50iTaN/+Er1SX451qudRXIDg7ZQE8p9MIQHB2GlE8r2gEIDgTLFCEQOHqVPtBvvzlL9MPfvADdqmsapJaXquW1C5dujSY6Uy6uDohOP8ngECySR5JdNGhzf/6pUk0BKf/tkcLzBCQ+goEpxnOKN09BCA4u4c1auoOAhCcnghOdaLTvffeG+wJyXqpsoODgzQxkXwoLwSnHsk8iTsEZ1aWolwaAtIkOg9vpTEhT+IOX4EP5EVA6it5eKvzlXAPJ5bU5rVsde+H4Kyu7cvacghODwSn2pepltPu378/cd9mGjnV0ls1w5l2nzS59C2hLaKdSKLLGjK71y5pEu2bf8JXusepstYk9RUIzrIywv92QXD6b0O0oBUBCE4PBOcTTzwRHBak9mOqE2lNLjUzOjQ0lHhEexFCTFqnrcRAh2WexB1JtAlLUTYJAWkSnYe3RfgnfAX8z4uA1Fds9SuY4cxrUdwPwQkOlA0BCE4ITmNO+5bQSpPoPO1EEm1MK9wQQ0CaROfhrdRX8iTu8BVQPy8CUl/Jw1ssqc1rNdyvQwCCE/woGwIQnB4ITnUA0FVXXcV+5iTeFCyprSMiTaLzJO5IossWKrvfHmkSnYe3Ul/Jk7jDV7rPrbLVKPWVPLyF4Cwbi9xqDwSnW/bA2+RHAILTA8GpXlF9BmXt2rVGhwZt3bqVtm3bhkODXn+dpk+fbuwteRJ3JNHGcOOGGALSJDoPbyE4QUMfEZD6CgSnj9auxjtDcFbDzlVqJQSnJ4IzFI8mn0VRBw2tWbMmVaRKk0vfEtoi2gnBWaUwaqet0iTaN/+Er9jhT5WeKvUVCM4qscSvtkJw+mUvvC2PAASnJ4JTvab6ruZrr70WnDqrOzzo7Nmzwem0//Vf/0XqhFs1O5p0FSHEpHXaSgx0LpIncUcSzQcflNAjIE2i8/C2CP+Er8AT8iIg9RVb/QoODcprUdwPwQkOlA0BCE6PBKcSj0uWLKHw5Fm1xDZ+qRNt77zzzmAZrfpvVT7tkiaXviW0RbQTSXTZQmX32yNNon3zT/hK97lVthqlvgLBqWHC3g3Us3KEBkYnaPeKsjHG/fZAcLpvI7yhGQKVFJznz5+f0MGkPtbc399vhmSt9IULF4J7pk6danxv1jrVDOenPvUp+u53vxvMXKpZTyUq1QFB6nAh9e/3fu/3aGRkhK688krte2StM/6QbrQz6cXPnDlDs2bNsoZtJ9u5evVq+tnPfkZjY2PG74sbgIBCQCXRP/nJT4IVDSaXb/4JXzGxLsomISD1FfUsG/3Krl27aNOmTaT62L6+Pj+NBsFZqN1CwalWrCVxyAZvdQ1+/vnn6cYbb6R9+/bR8uXLC8UGlfuJQCg4n3zySbrpppuMGuGrXumpzf5pBWcRM2KmdSqBqf4p4amM+Du/8zv0kY98JFhqmzTzmWRZ0zrDZ/g2g1JEOzFrYxRLUDgBAemsjW/+CV8B/fMiIPUVVe+rr75Kc+bMMX6F0p9SC8FpzIlO3oAZzk6iiWe5gEAlZzjLIDhD8nCfPtGRrAghJq3TVmKgwydP4o4k2oXw5vc7SJPoPLwtwj/hK37z1IW3l/qKrX6lFHs4o4Jz3jAtmjdI80dHiVaupJGG0YPltlRfelu/FtLQ8THaeHUyK/Zu6KFm0aD4EB0f20jx4i3lamVGV+2hlXtWJZY9MbyI5g0eala4cOg4jaW9gAtkzfgOEJwZgUIxbxCA4EwwlTTpKiLRg+Dkfa0IeyKJ5u2CEnoEpEl0EXEoT+IOX4En5EVA6it5eFupGc6G4DxEAzQ6sZvUls6mKGyKxhM0vGgeDZJGRB6N/tYoP3+UJiKbROvPnaynKSgTxGn9N5oUuSfqwrj2B+9FJwRn3qiA+11DAIITgtOYk74ltBCcxibGDQ4gIE2iffNPCE4HyOb5K0h9BYJTY/iEGc4WIZew5LYuAOc3RWnz6Q0hOD92AFFb+cRyKUI2RVymvoNnHIfg9MxgeF0WAQhOhwTnytpSFdNLbShXp9eqw4PSPn+S9syLFy/SwYMHTask3xJaCE5jE+MGBxCQJtG++ScEpwNk8/wVpL4CwWkmOFsEYyA4j7Ysoc0m9hoCsrkKNj6bGZmxbLxeMOvZMjsaTLG21R8UTxG3vlEcgtM3i+F9OQQgOB0SnCtWmJ89rgTnkSNH6NprrxUJzqeffprjSNvvviW0EJzGJsYNDiAgTaJ9808ITgfI5vkrSH0FgrN7grN1/2ZdZM6LzYimCdbg77E9nPG9m/GW+P45FwhOz4MSXr8NAQhOhwTn9OnTjSmKPZw8ZBCcPEYo4R4C0iQagtM9W+KN7CIg9RUIzi4Jzsby2/iBPnGB2bYns/F6RjOcdqnWtadDcHYNalTUJQQgOCE4janmW0ILwWlsYtzgAALSJNo3/8QMpwNk8/wVpL4CwdlNwdm6/La29rV+yNChySW1ycthzfZwpi619YzjEJyeGQyvyyIAwQnByZIkXsC3hBaC09jEuMEBBKRJtG/+CcHpANk8fwWpr0BwdklwNvZVHhqYPJF2cklsRHDWXsfklNp62einWPbShp7aZ1si9fhKbQhOXy2H905DAIITgtPYO3xLaCE4jU2cckPCiHRbycmj7kdpZftBD516lQo8R5pE++afbgrORuIa5VnKNwM7TUWViN9Bj3fusw7xQ1RKcqhKFHepr0Bwdklwqmoay2qbNSp/2nyM5sUOHqoXjXyvs1ZuaP4gDcYPDWo8qG0vZwnEpmoaBGc6N9u+5xop2onvsMpicL3POFqCT/J0uk8LnwfBCcFpzC3fEloITmMT6yJ98JHv1AMZSpjMdhA9o0dJk2jf/NM1wRkmsK2JSzjYov+wvZGBEwtbSFogOLVmefXVV2nOnDnGpiv9dziNEbF3QyAwqPV7nfZqc+PJEJyc4GydGQ9KJ8ykm1tTGoOl95m/oa93QHBCcBpz17eEFoLT2MSaG/RLluLLoTpZc9WeBcFZgMW1H45vcN/qTKeFpAWCE4KzAFcSVZnwbc9wZtT3U2dN8YDgFAhOdUsSh4zAl8Zg6X1GL+d1YQhOCE5jAkNw8pC5NmvDv3H2EunfWmsNuIknCwaDkOrj4M2PsFHiTNL8yGh2wgmHac/O3gr3S0Jwdt9G3IDJib17iWqfr7o69mp6TgdD78EBKXtWHafNx+bV9p01HhAVr+HofPPZkyP49Rme2tLCo7WlhYHr1GdaP/JdnS81HpRRcPJtaCx1THiPjXFAumw6qa+o18QMZ5eNxVTX/rkT26sK3Gp/+DYQnELBGR5GVYtTx8c2tsTqtqW48cFDLgaHcTsIwfHnh/nPEM0fHKTJEH88cXsE+y4R8TyJRMKsbgSmLDG8SLZDcEJwGvMPgpOHrMyCM/XD2rEPcSeJwrZj7xNmlJKPyq9l2c29OZPJ+1jRmS5PBXEJaRLtm3+64yuyGcy2g0sSZ0knP3Y/OVOTtFogeZQ8TE6igzPZ6g1GeGjRvEGaPzpBu9WnnhOWvWfxy3r+U99b14l9UmLHSLhR6isQnJ20Ap7VSQQgOKWCs/3gqWbsatkHPHnexEQQGMOrPQa35zJJ907u+2/G+JQVM5me1xanU05rbrx21hjeSY6aPquSgvPUqVMTOqBUwtbb22uKJV28eDG4Z8qUKcb3SuscGxuj2267jb71rW/RokWLjOqV1llEO1XDzp07RzNmzDBqoypcRDvXrVtHZ8+eJWWf8l3JgToeRNuCakrwbZsxTRCuT9AAjRy9pj5iGTxnD62qzfCUWG+SSqJfeukleuqpp4wo5Jt/uuMrghMutZymYBayztHkZKE98dAJzvbPR9QqaBk9T/yOISc4s/plrRXcDLARUTtYWOortvqVhx9+mO6//34aHx+nvr6+DrYUj6oKAqHgfPnll+mSSy5pa3a386Ef/vCHtGzZMtq3bx8tX768UDNwcajt95SzJZJXa8VicOZ7k/uPtjqyPi/Ig4hGJ3ZTVA4nAm8Qw4s0XCg4v/71r9PixYuNXqWIPF5aZ7Rf6ZmoXbqWFrHnT1rngQMHaOnSpbR//35asmSJkQGldfo2g1JEO92ZtTGiRObC7YG6Hmxr0bE+ixImp9ERxZiQbFbWFoCjAf947bnb6ZrRVbRn5THarIKvSSDO3CL3CkpnbXzzT3d8RSA4M3M62yBNTdIlnnTYJkwz16u0LjPDafAsV5eyS31FeT2W1LoX+/BGOKVWxwFjwdnysMnVJvU/x5ep6vZi6u5tz4GCx2sPUtQ8L7K8l92/bBDDi/StSs5wQnDWKVeEEJPWaSsx0DlfnsTdnSTaVnhpDa5JI4Xx5LR9b07ru0WDavNUwj//UW02UwnNj9ITDUH70SeqcWKhNInOw9si/NMdX9EvWUr0pMwdvbuC09gvUz5PYSvSZHmu1Fds9Stf/epX6Z577sEMZxbjoUwiAlhSm04MieBs3TNZF5nzgvMk5sdmEVOW1Db3b6bdm11wZn+XuCBVO4smB/VDhExieJHuBsGZgL406Soi0cMMJ+8+RdjTnSSax0daYlJQfoS+WzsQZTB60E/toZlnZRJeIAige1bVv9O2XS2lrdexZ9Uordqzko5tbg+60na4ep80iS4iDuVJ3F3yFS6RCTv2ZqefJjjbTkrskuBMOqFROsOZ4BiY4ZwEBZ9FcTVyluO9IDilgjNhpUrCwYPq6ZmW1Ga+N0VwxvuIzM+Ltz/pHIBGmbR+yDFXgOCE4DSmpG8JLQSnsYmz3RAGuWC5a/ueyqx7OOvHmB+N7HcLeoJgnyYtrB0WVDvZUx0OVBeh4Z/KvX9TGQCCMxsNO1pK+1mUhBlQ0z2c3KBM1iW1mesNfUlzaFBamxP8EoITgrOj/oaHpSIAwSkUnKmf1onlGOG++kPMktpEMReKv+i9yUtxuTMq6q1Mel5C+9OW5xrE8CJdDoITgtOYfxCcPGQuzdrwbystEVnukfBtwqTktO1kzUaCPdI8gTZ8l4QT3xodSftx5NL3d/s+CM5i7BPOYiZ+rudQ+yca0k6LPdTC6Q7PcNagyVZvBsGZ9KwUv4TghOAsxiurVysEp0BwhjlCPJ8I90NG/j65DJURnJnvDXOWSB+RJASzPi9B6CYeCteAKXtuVZwvQXBCcBqzD4KTh6wagnPym5pJn0lIS07b9hu0ic06vpkTat4cXpaA4CzQbG3fY6u9S8KgSviG/PfPsgrO6HdqY9/hTNg7ydebTXCqdmTxSwhOdwVn676wmO9ouFugl1mp2lWOmjYWgpMTnMm/px6wE4rR8DblE2rLTnx1VUssbMTgTPeGS2pHiVau1H+HM9PzEmJy4/vLaafzZ4nhpjzsZHkITghOYz5BcPKQVUVw8kighBQBCE4pcrivaghIfUXhVJZTatP3H8u+L1s1DrnWXghO1yyC98mLAAQnBKcxhyA4ecggOHmMUEKPgDSJ9s0/4SvwhLwISH2lGoIznCmJfhc2L+K43zYCEJy2Ecbzu40ABCcEpzHnfEtocWiQsYlxgwMISJNo3/wTgtMBsnn+ClJfqYrgrB/MNtL8pEL9s1NDNHR0kAZr57LV1os3D23LtEy7dkdrufa9zeqpmZ4VX17Y9l3EBjkzlmtfUltfzr6ndvjc5mPzqAZD/UpZZtyyNLlWZnTVHlqpTkwf20hXd9FPIDi7CDaq6goCEJyeC87h4WEaHByke++9l9R/m1xFCDFpnbYSAx1eeRJ3JNEmTETZJASkSXQe3hbhn/AV8D8vAlJfsdWvFPEdTt0nfeKHjYSiKr73Pm3ffE2NBieFh1f8eUmfl2g74ERzgMr85rcFU76F23Y6Z/o3c9MEpxLWk/v7Ej6dUWtcHMOmYC5gDywEZ96ogPtdQwCC02PB+dxzz9F1111H73rXu+gnP/kJfec73yGVvGW9pMmlbwltEe1EEp2VhSiXhoA0ifbNP+Er8IG8CEh9pRKCM+FUzERxmvlTO0liLfZJCO2z5tPoxG5aocAPZi1p8v+nESFruVA0thywlSxO0z7bNSl+1cukC9u8nOXuh+DkEMLvviEAwemp4Dx79mwgNt/+9rfTnj17aGBggI4cOUI/+MEPaO7cuZl4WIQQk9ZpKzHQAZUncUcSnYmCKKRBQJpE5+FtEf4JX4Eb5EVA6iu2+pXiZjhTkIydBJ54kmvax+Pjs4tp3wKMVm34LLWqN/V00UD3qe8yDxJbTic4mW/gpn1yoqhTbyE480YF3O8aAhCcngrOW2+9lfbv308HDhygOXPm0LRp0wKhedVVVwWiM8slTS59S2iLaCeS6CwMRBkdAtIk2jf/hK/AD/IiIPWV8gnO+DcFk5G1LTjbPs8Qe41WcRn5nnOjXLL4zFYudUltJsEZmX1tvEvQFuzhpHBF3b59+2j58uV5XRb3VxCBSgrO8+fPT+hsPT4+Tv39/cZ0yJPomdSpRr4+//nP0+7du+mTn/wknTlzhmbNmkVPP/00ffjDH6bPfvaz9OCDD7Lvb1Jn9GHdame8AWE72YbFChTRztWrV9PPfvYzGhsbM31dlAcCAQIqiVZL5dXAksnlm3/CV0ysi7JJCEh9RT3LRr+ya9cu2rRpE6m+p6+vrytG0+3hjL+AkeCMHTgUzja2Lj2N1ZA2w8kiMSkqtTOe4VLXln2Z9YfnE5ztJ/kWPcOpVrMlccgGb3XmUSvoFi5cSBCcLIlRIAWBUHA++eSTdNNNNxnhVEQeL60z2q/0TNQuXUuLmBHLWmc4yrRmzRp69NFHg2ZEvyO2detW2rZtW6b9nFnrjGOVJ6GV1hlvpwlTpXXmaSdmbUwshLJpSfQrr7xiPGiRh7dSX8njn/AV8D8vApjhbD/wRodpoojKtYezIRTDWcSUZ9X3bB5tnoib+I5ZluyqG1PKSQVn8vOwhzO0EWY480Yp3F/JGU5fBWd036ZaSjtz5sw2wan+sGTJkkz7OaXJpW8JbRHtRBKN4JoXAWkS7Zt/wlfyMgX3S30lz0CJrl8pbg9njiW1NTDSTqk9FNsD2rbfMUFItj2LEg4bSrgvcS9l1nJhG5IODWKW1Cou4JTa9FgCwYk4mxcBCM4EBIsQKFnqjO7bXLBgQfPNozOc6o9KmGbZz5mlziSC+ZbQFtFOJNF5QxPulybRvvknfAVcz4uA1FcgONu/LZnp25nBBGNtb2P9I561K9t3OGsnA9HE7uB82ubVvt8z47NS6hTPcDbeKP4dzqH5tW+VtgjYvGzNdj8ODcqGE0r5gwAEpyeCM/ze5iOPPEJr165teeu44FQ/qhnQpUuXar/PWYQQk9ZpKzHQuWqexB1JtD9B0NU3lSbReXhbhH/CV1xloD/vJfUVW/1KETOc/ljLrzcNBCi1C2XbrYDgtI0wnt9tBCA4PRCcSfs2o6+dJDjV79x+Tmly6VtCW0Q7kUR3O5SVrz5pEu2bf8JXysfdbrdI6isQnN22lMP1xQ9HUq+a9LcuNQGCs0tAo5quIQDB6bjgTNu3mUVwqjK6/ZxFCDFpnbYSA52n5UnckUR3LYaVtiJpEp2Ht0X4J3yltBTuWsOkvmKrX8EMZ9dM39GKsi7v7WilKQ+D4OwGyqijmwhAcDouONP2bWYVnLr9nNLk0reEtoh2IonuZhgrZ13SJNo3/4SvlJO/3WyV1FcgOLtpJdRlggAEpwlaKOsDAhCcDgtO3b7NrIJTlUvbz1mEEJPWaSsxwAynD2Gqmu8oTaIhOKvJlyq3WuortvoVzHBWmY2daTsEZ2dwxFPcQQCC01HBye3bNBGcqmzSfk6p+PMtoS2inZi1cSfI+fom0iTaN/+Er/jKUHfeW+orEJzu2BBv0ooABCcYUTYEIDgdFJxZ9m2aCk5VPr6fswghJq3TVmKAGc6yhbTytEeaRENwlocDaEk2BKS+YqtfwQxnNruhVDoCEJxgR9kQgOB0UHBm2bcpEZzx/ZxS8edbQltEOzFrU7ZQ2f32SJNo3/wTvtJ9bpWtRqmvQHCWjQnlaQ8EZ3lsiZbUEYDgdExwZt23KRGc6p7ofs6//uu/punTpxv7gm8JLQSnsYlxgwMISJNo3/wTgtMBsnn+ClJfgeD03PAlfn0IzhIbt6JNg+B0SHD+6Ec/ouuuu47WrFlDjz76aGZKpn2HM+0B4X7Ob3zjG7Rq1arM9YQFfUtoITiNTYwbHEBAmkT75p8QnA6QzfNXkPoKBKfnhi/x60Nwlti4FW1aJQXnm2++OaGz9xtvvEHTpk0zpkSeRE+Jxg984AP09re/nb7//e/TzJkzM9d/+vRpuuyyyzKXVwWXLVtGR44coWeffZauvPJKo3vztFMq/tQLStqp7ivCnrfddlvwvgcPHjTCFoWBQIjAxz72MTp16hQ988wzRqD45p/wFSPzonACAlJfsdWv7Ny5kzZu3Ei/+MUvqK+vDzYDAsYI7Nq1K+DQL3/5y0QOdTsfUgdZvv/976fvfe97dNNNNxm3BzcAgf/4j/+g66+/nkZHR+nmm282AqSIPL4TeqXHRcH593//9/SZz3yGvvWtb9G1116b2RBqX6YSNYsXLzYSqeq+G264gb70pS/RLbfckrk+VdC3hLYIoqok+sknnzTCFYWBQByBG2+8sRKCE74C7udFQOIrtgVn3jbhfiDgmuCERYBAXgQqJTgnapcOMKmqzSvExsfHjUSjakO4J3P//v3BKbQmV1HtlOwbVe0yXTocYlFEO1UC/fLLL5uYo1n2v//7v+ltb3ub8b21gRS65JJLjO+7eHAPHNYAACAASURBVPFicM+UKVOM75XWefz4cfrKV75C99xzD82bN8+oXmmdRbRTNSyPPX/zN3+T1OCFyZU3DnXbP6W+4qM9Jf6ptlqo5XXd9JW8vJW0M689Jb5iq185evRo6uqWvO2UYOuiPe+++25asWIFrVy5si28SWO8i+3Uxe4s7VQTEUl9c7fzITWj+vWvf72reYJv9lRnsPT09NC9995r0mUHZfPkCZKYUGQc+uQnP0lXXHGFEUZF5PHSOqP9So+rglOS6EFw8pyVksa3xN2ndoK34G2RA0JSX7ElUHRsUFss1BK2bg4qFtFOxFt7McFFe6rEfMuWLcE3wuOXT/4J3laLt7rWfvCDHwwEucpvTK9uDyCAt7yFOhGHIDgbOEvBBFG7Q1S+ltYSPtkTgpO3rk/2dDGh1SEsxbaIdkJw2vOVIuyJ/rNuTwhOIp/iEHjLxyEITh6jqglrCE4ITt4raiUQYHmYpB0mBKc9bMFbe9gWIVAgOMtlT/gnBGfIaGn/WUQcAm/5OATByWMEwRnDSBoE4JA82aTYIsDawxa8tYcteGsPW/DWHrbgrT1swVt72IK39rAFb+1hC97aw7Zo3pZqhhNELS9R+Za1lpCK+aIdEu1MRgD21DMDvOU9R8oh9Cv2sAVv7WEL3trDFry1hy14aw/bonkLwdmwrTQZKdqAPDUhxEwwgj15tKS+go7EHrbgrT1swVt72IK39rAFb+1hC97awxa8tYdt0byF4ITg5NldK1E0UTO9ZKSQVBShnTzSUmzRkdjDFry1hy14aw9b8NYetuCtPWzBW3vYgrf2sC2at6USnCdPnqSdO3fSZz/7WZo7dy5vNQiUzBgVTdTML+rhAAJ4y1tXKnLBW3vYFpEYvPjii/T444/TnXfe2bUYX0Q7wdty8Zazp/ocivp2eNL3w6WxD7y1xyHOnrqaq2LPkZER6uvro7Vr1/KGiJWo2mE6pgBJOVQ0b0slOHHaJ09bX4nKt6y1hE/tBG956/pkTyR69uyJU2rtYQve2sOWS/TwWRR8FoVnH5FPQgyn1PIW9cme0hws2q9AcHo4I4bEgHdkqXNwiYGNkUsIznLZE/5pz54QnPawBW/tYcv1KxCcEJw8+yA4OYx8yvuqGG8hOCE4OR8Ofuc6TBtCrCoOCcHJUxAdiR6jqvgnBKc9X6lKvHWxnRCcEJy8Z0NwchghT3A7TyiV4HzuuefoM5/5DP3t3/4tLViwgONmy+8gqttENTJmrbBP9gRveev6ZE8XE9qyDAg9++yz9LnPfY6+/OUvdy3Gw57wzxABW3FI7d1Ue92S9rtJ6wRvwVvbvNUhfNddd1Fvby8NDw/zhoiVqNpSU1OApDGh6IHpnvPnz0/oGjs+Pk79/f2meNCFCxeCe6ZOnWp8r7ROVdGZM2do1qxZXasT7eShhj15jMBbPUZSDsE/ee5JsUW8tYcteGsPW/DWHrbgrT1swVt72IK39rCN8rZUM5wY0eNJ4+vICN+y1hJopx6xoke6YM9kBMBb8FYhAP/kI4TUV5An2MMWvLWHLXhrD1vw1h62Ud5CcDZwlnZeIGp3iMrXAsFpghF4y6MljQlIDOxhC97awxa8tYcteGsPW/DWHrbgrT1sq8hbCE4ITt6jMOKeCSMIFB4m7M3QYyTlEBIDnntSbKuYGPBoYoDPBCP4J48W/JPHCP0n+k+FgNRXio5DpRKcOO2TD1i+EpVvmb8JEHjLWxe81WNUdEfCW7Az/olTanmkpb4CYW0PW84/cUqtPIkGb4vjra5mfIeTt0vVBhAgODHDyXsFZjgzYSRN9CA4eXil2HKJnq5maZ1IgOzZE4LTHrbgrT1suTgEwQnBybMPn0XhMJL22Zx/Ik/ojH9CcEJwcj4c/A6H5GGSBjsITnvYgrf2sC1CoEBwlsue8M+6PSE4O5PQ8t7RWkLaZ4O3PNKY4eQxwgxnDCOfHBKJO09wn+xZREJbREcC3oK3IQLwTz0XIDjt+UpV4q2L7YTghODkPRsznBxG6D/1CBWR30bjbalmOE+ePEkPPfQQqQ/Ozp07l+Nmy+8gqttENTJmrbBP9gRveev6ZE8XE1odwlJsi2jniy++SI899hitW7euazG+iHYWnRjwHomZIhOMOHtu3bqVlixZEvyLXz75J9fOssQhtJNn/8jICPX19dHatWv5wrESVZv5MwVIGhOK5m2pBCcSA562vhKVbxkSIBOMig48Ju+qyoK3GBBSCIC3vOdIfQX9pz1swVt72IK39rAFb+1hW0XeQnA2+CTtpOGQcMgQASmHqhh4eNZgAMEEI8QhHi34J48RZhb0GEk5BP/kuSfFFv2nPWzBW3vYVpG3EJwQnLxHYWYhE0boMHmYkNAioVUISH0FCRDvY1Jsq5gA8Whi4MsEI/gnjxb8k8cIeUI584RSCc6zZ8/S/v37aenSpTRz5kye1ZES0iCAAMvDLMW2KgkQeGuPQ/BPe9gW4Z8/+9nP6Pnnn6frr7++azG+iHaCt+XiLWdPdXCcOnci6ewJ9J88FyBQ3BMohw8fpv7+flqwYAFvwFgJ2NM9e3YiDpVKcOK0T96vpaThOkxdzdI6q5LogbfgbYiA1Feq4p84pdaer1Ql3rrYTpxSK1/14KI9kQ8R4bMofKyumrCG4GxwAome3jmqktAW0U4ITj4wwz/hnwoBCE57voLE3R62XL8CwQnBybMPn0XhMEKe4Hae0HPq1KkJ3SuqQNnb28vZue33ixcvBn+bMmWK8b3SOsfGxui2226jb33rW7Ro0SKjeqV1FtFO1bBz587RjBkzjNqoCqOdesiKsCd4y9MYvHWPt0XEoX/5l3+h22+/vasxvoh2FhGH0M7i4tA73/lO2rRpE/3Zn/1Z20tIYx/sWZw9beTUvtnz1ltvJTWQ8u1vf5s3RKwE8lteOPqiy6K8xQxnw64YGeEJrkpISC7FVtVXhSUHmOHk+yMph7iZBV3N0jqrwtsi2okZTnu+UoQ94Z91e2KGEzOcvGf7lQ9hSS1v0Srkt9F+pVSCUx2+8k//9E/0+7//+107UAIdJu9USNz1GIG39jgE/7SHbRECRR0adOTIEbrhhhu6FuOLaCd4Wy7ecvbEoUEQnDzj/RKcODSItygEZwwjqVjgAixmFhBgeXf0K8BKfQUJLc8EKbaIQ/awBW/tYQve2sMWvLWHLXhrD1vw1h624K09bL2e4dy7dy997WtfS0XnjTfeoGnTpqX+rvZ4/smf/Enb70ho9YSDQ+ZzSPC2jl/VRvR41rSWQBxCHFIIIN7yniP1FcQhe9iCt/awBW/tYQve2sPWa8H51a9+le655x668cYbg30PJte//du/0Z//+Z/Tjh07IDhNgEMClAktXQIE3kJwZiGRNIlGh8mjK8UWiZ49bMFbe9iCt/awBW/tYQve2sO2aN56t4czTNzHx8epr6+Pt0ykxOzZs2lgYACCc/p0I9ww4p4NriyCE7x9lebMmZMN0EgpqVgoOsCaNhTt1CP24osv0uOPP0533nknzZ071wheKbZIgHiYpdjCP+vYbt26lZYsWRL8i19SbMFb8DZEQMqhPP45MjIS5Ohr167lDRErgZVQesiKsKe0zmgcguBs2FUKZh6HlNZp7L0VvEGKrS17YqCkTkJ0JOXsSExDjNQ/cUotj7QUW/inPWy5fgWn1OJMC559fvWfOKWWt2jV8iEITghO3is8LCFNurjEQAcFZjh5olQtwPKItJZwjbfc+3fbnhCcnEWQuPMIuZe4Q3CCtz7yVvfOEJy8Rbvdf9rKb7mWhu2E4ITg5Lji5e+uJe6Y4cQMZxZHco233Dt3u8OE4OQsgsSdRwiCk8MIcUiPUNGJO2e/+O9F2BOCk7dSt/vPonkLwem84DxBw4vm0eChARqd2E0rYhzeu6GHVh4douNjG+lqnt8dLNF4r/mjNLE7/lZExb1XvYlFBFjMcPL0qlqA5RHBDKcJRs8++yx97nOfoy9/+cu0YMECk1vFMUFVAt7qoXYt3nLEcM2eau+m2uuWtN9Nii14y7HAvTyBe2PXeKt737vuuot6e3tpeHiYa1bb7z61E/7JmxcznDGMpKSxP2IQCs7aCw+0i7vihB0Ep8koImY462ihI0Hi7uKAENdlgrfgLXjLeQk+58MjJBe56D95dN3N45PfvWr9CmY4Gzxwl6gNYUcLaeEholXHx2hjZCoTgjPZkV2zJwQnBCffXcqTEfsDX+gwcbpyOoNdi7ecr1Ut0ePwMBk81T0LcYhHWuorEJz2sAVv7WEb5S0Epy+Cs7Z09fg122nesc0tS1jjgvPE8CKaN1hTpo1r4dBxGgsUasKM5N4N1LNypDZxOkHhqtjsAtZghvPEMC2aN0iTb6UmayfrDN81/d1Vib20oWc7XTM0nwYHR2r/P3mJcfgsaVC3FXggOCE4+ZAOwclhZMs/uXohUPQIuRZvYU/EW44D6nfwVo8S4i3PIimHqjiA0HP+/PkJHaTqu4H9/f086rESeYiqq3PXrl20adMmkn7PcN26dbRt27a29rjWzvAFp0//z/oezmCvJNVE10qqbeZMFIi1gjWxSTQUzoI2hF7tD4HoDATdnlXN/Z5NgddcqlsXkXtWhSJVZ/aMgvNxojtqLzU/KjAThG79XdLfvS44V9LIwsn9qsrR0y7X7Fk13qbZ5cyZMzRr1izjeOKaPbkGoJ16hGBPe4meFFv1RuAteKsQkHLIVt6HeFtHAP4J//TZPzHD2eCvdJQiT4DNVmersIuLxskZyXfTgzVBdrQ5o9loWCDulEatHTgU/PfRpiBV9z5RmykcOXpNXYQGAnVP27LdZBfPKDg3H6N5Yf2psaIuJrXv3hCcbWVSnpkN2/abbdkTM5x1rDFTpO8wXeMtl+h1257q0CA14KgOosChQcnWkXII/smx3d6MGA4NkmML3hbHW13NODSIt0u3+09b+S3XUhwaFENI2knbN2Bc2LXOQjYFZyDsJsVks3mNWc76DGNd2NVnSBtLVEdX0Z6Vx2hzU5A2xCnHoKQlupF74kK4tnA38ZTd4JaYEObfnX0555bKQHBCcPKslSdd9uNQ8tt3u8PEZ1F4Fkn7MiTu9rDl/BPf4ZTHPvC2ON7qasZnUXi7dLv/5OKQ7o070a9ghrOBsBRM+wZM23tZF4Y1BVn/LEogONXexuQr3DOphOD2a2pLZj/yXVp0B9HjY2pmtLY3srYM990P1p5FyZ85aX9qxhnO4HMtkZN2Gw9q2cPZWGKrf/eoWOYd2TV7QnBCcPKslSdd9uMQBCcODUpnsGvxlvM11xI9CE557IPg5NguxzZPvwLBydvFtTgEwRlDoHqJe7KwC4Xj5mPzIoIzYYYzhl+4JHd01R5a2TiAqP6sUVq1ZyUd29x+mE8aCYNZzBSByv42snByr2naDGdLxRCcO3bsaDMFEj19UM/TYUqxRQLEd7RSbDHDaQ9b8NYetlwcguCUiyLwtjje6mqG4OTtAsEZw0iaGHABVqqkITgbyDX2W6pvpRwidZBOfQ9n9EChRIyD+47R/IEROqpmOpuHCVHiZ1d0dqof9DM/Yalsyp7M5sPi4jGLmMxSZvJtwVsIMYWArTjEdSVV60g4POK/S/3zxRdfpMcee4zU4W9z5841qlZaJxJaHmYptvDPOrZbt24ltY9T/euUr4C34G2IQBH+OTIyQn19fbR27VreELES6D/1kBVhT2md0TiEJbUNu0rBtN9hpi9dDWYR1SraxsmtbafU1n6ql4nMJoanvda+69k8zTZc0ho5ATZbhGicHNs85bZ+V73Oxp7NpNnLhL+1nVLb9u4QnJjhnJ6NlpFS9v0z+ZXQYZazwzQloLv9CniLJdLpbAZv9Z6OfoWPhFIOYaDEHrZF8xaC02PBmfSpkPi3LJO+V9kiCFX7Y59P4ekeLdG+PzMUwOrrnw0FGnzvc/KKCuDJv+rfHYITghOCM803i+5IzGKGfPkc2skjjUSPxwgDQhgQUghIfQVxiPcxKbYQnPawLZq3EJzOC06efCjRjoA02NlyyOotBccMCmZQMIPiWhzi+goIMQgxCDHOS7BVg0dILuYhOHl0fe1XIDghOHl2e1jCtkOePHmS1L/onhtdnRCcdRIhoUVCi4SWD6i2Br64muGf8E/4J+clEJw8QhCcWTCqWryF4ITgzOIX3pWxLTgPHDhAS5cuDQTnli1bgv+F4ORpUrUAyyPSWsI2b5PeR1pnEQMIOKWWZ5RP9oSwrtsTp9RCoPCe7deALU6p5S1atXwIghOCk/cKD0tIk66sCVAoOKdMmUIXL14MBOd9991HH/rQhxLRwgwnZjizuJFt3kJwmu8DLkJYZ41DvtsT7YTgDDksjX3wT75nkWKbxz8hOHm7QHDGMCqCqJgpAlFDBFx1yFBwhu/Z29sbfIIjOuMZtSIEJwQn79XyUf48iYE0xheR6GGGk2eRT/asCm+5dmKGUx77iohDnD11XloV/4Tg5GO1q/mtrYFMzHB6OsNZNaLyrttaQhrUs3YkccHJCU8ITgjOLBy2zVtbHUmWtkXLSNsJwckjLcUWibs9bLl+BYITgpNnH5bUchhJYx/nnxhA6Ix/9rz55psTOjDfeOMNmjZtGmfntt9tGXDnzp20ceNGGh8fDz4qa3LNnj2b1q9fTw888EDbba61k2vX6dOn6bLLLuOKoZ2GCGXl7cGDB+mmm25KfXo447l48WLavHkzvfDCC+BtDS3wVk9IxCE9PmfOnKEjR47Q9ddfTzNnzjTybmkyoioBb8FbhYAt/1T9ydy5c+nKK69sAxq85d0c/umefx4+fDjQDtdeey1vwFgJ2NM9e3YiDlVKcKoE5bXXXjMmP24AAnkRuPrqq+nEiRMYKMFAiZZKthJaWyO0SAzKmRiYxjvwVo9Y1oHMpKd0ItGDPZMRAG/BW4UA/JOPEJ2IQ5VaUnvppZfSe9/7Xlq2bFkbuopwalbK9FIHxqhLHR5jeknrVPWcO3eOZsyYYVpl4FhoZzpsWe2pPony2GOPafEPZznXrFlDV111FW3dulUsOAcGBmjHjh1t9UmDQFEBFkvB9S4Le7qZAIG34K1CAP4J/yxSoCAOIQ75HIcqJTjVklok7q/T9OnmJzVCoLQGurQ9nKpUVGgqkamWSmEPZx0/dJjoMH3uME1H+CBQIFAgULJ5jdRX0K/w+EqxRd5nD9sq8haCs8EnOCQSA5PEIElwJgnNEFUITghOvuvCDAqH0YsvvkiPP/443XnnncFAjskljfFVTAxMcMUAAo8Wl7irgUl1wrn6F7/AWx5fDGS6N5A5MjISnLOydu1a3oCxErCne/bsRByC4ITgzBQMuA5T95BOEDXTS0YKSevM2s6o4AyF5ic+8Qnavn17YiIMwQnBmYXDtnmb9A7SOosQYjillmeRT/bMGm995y3XTpxSKx9sKyIOcfasWj6U1F58FoWP1VUT1hCcEJy8V9RKIMC2whQVnGqPphqhfsc73pG6XBmCE4Izi6NJxUJV/BOCk2eRlENI3O1hy/knBCcEJ88+v7akQHDyFoXgjGEk7by4ACsdAULijsSdd2N555WVt0pwPvroo4HQDJf26XwFvAVvXeCt7zNFEJw8i6R9NgSnPWy5fgWCU95ng7fF8VZXMwQnbxcITghOniWRElxHIhXW3EtUjagcHvHfpUmXLXtCcJpaEOW7hYDUV4pI9CA4eVb4ZE9b8ZZDybX+E4ITgpPjbBHxNo9/QnDyFnUtDtnWK1hS20BY2knncUhpnb4FHrSTcEotH3tRoiAE4J888FVLDHhEWktIOYT+k0daii3yBHvYgrf2sAVv7WFbNG8hOCE4eXbXShRN1EwvGSkk7aRttRMznKYWRPluISD1FSQGvIWk2NqKQ9wbQ1jrEYI99fiAt5yHYSaXR8ivvarSmFDF/hOCE4Izi/9DcGZACXs4M4AUFtm7gXpWHqWh42O08eos952g4UXzaPDQAI1O7KYVsVv2buihlUeH6PjYRsr0uCxVtpVpvMP8UZrYHX8Dou68Q/Sl6u9zbPME7V6xlzb0bKdrMuM5+Rx0mDwZIMQgxBQCUl+BEON9TIptFRN3Hs3WElJswVseaSm2VeQtBCcEJ+9RtRIIPDxMEJw8Rs0SYsFZe8JAu+DrjthzS3CeGF5E845tnhS/CtPt1xiLbnSYPG8hOCE4ITh5P0GewGOEeMtjhHhbzngLwQnByXs/BGcmjCA4M8FULyQVnLSQFh4iWhWbyaue4FQzmiupNt1bm90McY/OeGa3hU8J0LPPPkubNm2i4eFhWrBgQfZG1kr61E4k7rxpy2TPJUuW0Nq1a4N/8atM7dRZFe3kOe+TELvrrrtIfaNcxWrTy6d2gre8dUN7QnBCcPJsgeDMhBEEZzpMwWzcYE0pBtdCGhqaT4ODsSW1gQgdaT5k4dBxGmuut52cXTx+zfbWmb1Av7YuqW2tr1Zj81kJs5SNegci4i1ZwBrMcJ4YpkXzBilssWpU9PlNidiCS/Q9A1VeXyYbYKVwiSwnDt5Z6c3W5cVBu/esMprl9KnDxCm1fCjyyZ4Q1nV74pRaDAjxnu3X3kacUstbtGrCuuf8+fMTOljGx8epv7+fRy5W4sKFC8Ffpk6danyvrs5du3YFI9yqTF9fn9GzZ8+eTevWraNt27a13edaO7mGnTlzhmbNmsUVQzsNEQJvecBMfGX69Ol1MTgSF0tKQNWEZzhT2Sb66jN4I83ls1GxR22ze1GBWNvYWBO3NPnshvir/SEQsHFR1hSnsbr2rIoKXoVLRsH5ONEdtReYH519TBC19XrT37MuOGsYLGzfmxq0lxL2ksZmjpX44C4Te8afZSMOHT58mL73ve8lvvbLL79Me/bsodWrV9MVV1yRWEYlOjfddFPHYp96kI126uxiKw5xXEA79QhJfYWz51ve8hb6y7/8y+Bf/JLWCd5ybKcgj3Qpv+Xe2Cf/vPnmm2nKlCm0b98+rlltv/vUTimHquifmOFsUF06KowRWj6WSLFVTy7LCFBlT6ltiL0W8VWza12EhoKzLuTaBF6LeGoVe3HROCk4300P1kTa0ZbZ0aDCyRnBmChT9z5Rmz0cOdrY/xi88562ZbuZBefmYzQvYfax1VPqYlL7ng3B2VYm9e9KE9dnVuN467zUNf8MfSVpQG1iYoIuXrwYJDJqVih+/fznP6f77ruPduzY0faba+3U2QT9SrX6FcxwYoaTZ7xf+RBmOHmLliW/5VqKJbUxhKTJCBIDjmroSBRClRWcKUs/W/ZwUopIahFP8dnFVpHaFJyB2Es4/bblWdH9j41lq6OraM/KY7RZLVFNe+esM5xjddE7El0CG3eTtD2sqe8ZfUDS/s3w9xQhq3FTaeyzNSDkmq/YaicEJw6jCzmAPZzIE/hMyi/BiT2cvEUhOB0XYq4lIxCcvFO5ltAWkehVlbf1ZaPz2z9lEhVcaYKzMZNXPxgnbe9lfR9jbbqw/lmUQHBO7gON2zrcR6kE6vZraktmP/JdWnQH0eOBSKx/VuTdD6YsV80sONWnWcLPuEy+Qcsezth+1eT3TBGW2llMCM6BgQHMcNaWskuuqiVAphhJ+zLkCTzSUmwxIGQPW/DWHrZV5C2W1Db4JA12cEg4ZIgADg1K4IK1Gc56XaFw3HxsXkRw8t/3DJfkjq7aQysbnxapP2uUVu1Z2fi2ZXt7UvdONt4lcV9l+FtzCXHwhwzfIU2bycQMZ1rUUfv0IThfJ7V3WnJBcOpRQ56gxwf5EO91Ug5VUaDwaLaWkGIL3vJIS7GN8haCE4KTZ1qtBByShwmCMwGjlNm41gNzzPdwNmtq7LdU30o5ROpwnfpy1tbPhaS91zGaPzBCR9VMZ/MwodpRRgmfXQmfkDpjq9tXWZfGsYOOdKIxrE0vONv3dtbuK9EeTunBcBCcEJxctIawhrBWCEiTaORDnIfJsYWwtodt0byF4ITg5NkNwZkJIwjOZJjaTmNtLieVnlLb/PBkXcoFBxDV/qNxmmvbKbXNMpH6whNgE07KDZ9zdWJz4qfn1gu1nMSbNHuZ8Lc2XNreM12UZj2lNgtxpUmXrcTAteXnttqps03RiUEW3kTLSDmEdvJIS7EFb+1hC97awxa8tYdt0byF4ITg5NkNwZkJIwjOdJg6+R3Oid2tgjPp8yHx73C2fMOy8Zptn2uJfT5F05rgVN3mZ0VVwfinS9r2aEbF7uST9e+pmQUt8Xc4ITixoiRLwC2TEMMptZgRy8J5n2bmcUotb1Gf7NmJeAvBCcHJewUEZyaMIDgzwYRCHUEgSYxmWabbXnknOhLTJvnkKxhx560r5VDRI+58y1pL2GonBCcEZxYu+iRQIDh5i/pkT2nsi/afEJwQnLxXQHBmwsinJLqoRC8TkCiUCYFgdrRx4FFwg5r13N74lmimJ9QLdaIj0VV38uRJUv/Upx/CyydfgeDkySTlUFFxyLVED4LTfhxKYjF4q/ftPP4JwcnHTdfikO6Npb4CwdnBj4LncchOGJCndHdGaG0T1fd2urZMsCjemtoR5XUI1A9bOrZZfTam8T3R2mddaucfGV2249CBAwdo6dKlgeDcsmVL8L8QnPYSPdv2ROJufgIwF28hOCE4swRtnwQKBCdvUZ/s2Yl+BTOcDU5IweQ6EggxdCSKAxCcfPBFiWIQkMa+rDN/oeCcMmUKXbx4MRCc9913H33oQx9KbLBrvpK1nRBinRdiVek/lY/MnTs3+Be/bPsneAvepvlZnvz28OHD1N/fTwsWLDDu2KomxEwBksaEPPaU1hntPyE4ITgzcb1oomZ6yUghqXPYaqdrSbStdnJ2QkeiR8g13nbCnqHgDJ/V29sbfGYpOuMZrcc1X4Hg5FggH1REHLKHLXhrD1vw1h624K09bIvmLQQnBCfP7lqJooma6SUhODPDBHvyUEnFHzrM9UQXewAAIABJREFUVmzjgpMTnhCciLe8d8pFLvyTR1ca+9Cv2MMWvLWHLXhrD9sobyE4ITh5pkFwZsLIp31pCLC8SaVJFxKDbIIzTXgePXqU7rnnHhofH6e+vj7eUJESs2fPpoGBAdrRwX36sCdvAqmvIA7Zwxa8tYcteGsPW/DWHrZF87bn1KlTE7rmqRdUS6BML7VXR11q347ppavz4Ycfpvvvv1+cjHz84x+nL3zhC22v5Fo7OczOnTtHM2bM4IqhnYYIucjbmTNn0muvvWbYEhQHAn4icNVVV9GPf/xjZ2K8QhHxVs8l9J96fLh+ZWxsjK644orgX/ySYgve8vFPii1nTxs5tW/2PHLkSKAd3vve9/KGiJVAvC1nvMUMZ8OuGKHlCa5KSAYfpNiq+sqy5y/PMsFLL700CNrLli3rWDKCDpPvA6XJiG+Jge12qk+iPPbYY1rAw32da9asISU4t27dKhacmOF8naZPNz8IpUzxlvNu1/oVnFKLJdIcZ33zT5xSy1vUtTike+NO5PEQnBCcvFfUShQ9FZ/pJSOFpM5hq515BKeNZYK22snZqWoBlsMj/rtrvOXeP4s90/ZwhgNYiotKaCqRqU7pdM1XfEv0pBxCOzm2y0URF28hOOXYgrfF8VZXMwQnb5cs/WfSU6QxnotDEJwxBFxLRoo2IE/p1hK+EtX3doK3dQtWLcD6zlvu/bPYM0lwRmc0Q6EZ1uWar4C3HAvkYgH9Zx1bCE45h+CfbvonBCdvlyz9JwQnj6O1GTHXkhF0mDwZpCK3TB0JeAvByXuKPOlyOQ5FBWcoND/xiU/Q9u3bE7876JqvlCkOcRysWgLE4RH/XdqXcf4JwSmPffBPnsW2eKurGYKTt0vV4i2W1DY4UYRDSutEgOUdWYotlxjoasYptbxdqhZgeURaS7jGW+79s9gzKjjDpbPveMc7UvcZQnBiCwPHO/W71FfQf/LoSrG11X9yb5wlDpVppojDo1sDJdJ8iHt/2FOPkK/+CcEJwcn5fvA7OhIeJghOHiN0JOXsSHStUoLz0Ucfbe7R5MQCBCfiLR9JIDizYIR4W714C2FtfmAa8ls+mkhFbnSAD4ITgpNnGgRnJowgOHmYkAAhAYLg5P0ECRCPUScSIL6W1hLSOmFPHmkpttGElq8F9jTBCLzl0QJveYzCvA+CE4KTZwsEZyaMIDh5mCA4ITghOHk/QaLHY4REj8cI8Rbxlou3OoQQh3gfQxziMYLgjGEkJQ0ckiebFNsyjVy6tkwQvAVvQwRc80/XfKVMcYhjPQRKMQJFndS8ZMmS4F/8cs0/IVCw5J2LI+r3kZER6uvro7Vr12Yp3lIGcaiYOKSrtRNxCDOcDYSlYCJx52OJFNsyJXquJdHgLXgLwclzICyBBKicCVB2BtRLSvsyLt7ilFo5tmXKEzg++hSHcEotZ83qfSYOghOCk/eKWgmuw7Q9MpLpJSOFbCUG0nZCcNaR86nDlHII7eS91afl57BnPnvq7ka/UkcHghOCk/cyv/pPCE7eolXLhyA4ITh5r4DgzISRT0k0Ej3epBCcPEY2OkzXBmcgOHkeSH0FcQiCM2SXlEPwTzf9E4KTt4uN/tPlAT4ITghO3isgODNhBMHJw1S1AMsj0lpCmnSVKXGH4MSKkix+I/UVFwWK2rup9rol7XcrUzt1dkU7edb71H/edddd1NvbS8PDw3zDYiV8aid4y5u3eWjQ+fPnJ3TFx8fHqb+/n39irESeBEhX565du2jTpk2kyqgNySbX7Nmzad26dbRt27a221xrJ9euM2fO0KxZs7hiaKchQuAtD5jUV9STwVs9vlJsbfGWY4MNe7oW48FbjgUU9Mcu5QncG9vgra7OMvkn2plvQEjqK4hDnFcjDnEIFR2HMMPZsJB0lCKPAaV1ujhCi5FL/R4U12ZtwFsuNGNPEY+QnT1FrvkK4i3PBGlfhjhkD1vw1h624K09bMFbe9gWzVsITghOnt21EkUTNdNLRgq5lgC5lkTDnjyjpBxCh5kPW9d8BfbMZ09bM2LwT94uWJqox0jKIfSfPPek2CLe2sO2aN5CcEJw8uyG4MyEEfZw8jAhAUICpBDwyVeQAPF+LU0ui06A+Ja1lkA79YjBnjyjpBxCHLKHLXhrD9sobyE4ITh5pkFwZsLIpyQaAZY3KRIDHiMbAwiY4cSKEp555Vryjs+ilMueOv5WpV/BKbV8FLPRf+pqLTrvg+CE4OS9AoIzE0YQnDxMVQuwPCKYQYljBMEJwZnFb8qUuENwQnBm4bxP/ScEJ29Rn+zZiXgLwQnByXsFBGcmjCA4eZiqFmB5RCA4ITjbWVL0SDR4m4yANOni7AnBCcGZxed86j8hOHmL+mRPaexTKDQ/izJRu2xM/3MBVlqna6PfttrJUbVqROXwiP8udQ5b9gRv6xYCb/VMdo23nN/ZsKdrvgLeciyQiwVb8ZZ7Yxu81dXJtROCU84h+CfHdjm2HG91NUNw8nZxLQ5JdRnXUgjOGEJI9PSUyRN4pNiWqSNxLYmGPbkQKe+ky8RbDiUbHaZrvgJ7ciyQ+wriUB3brVu30pIlS4J/nRo8BW/B2xABaQ6Wxz9HRkaor6+P1q5dyxsiVsJGv5JnQMi2EDMFqAh7SuuMxiEsqW1YWgpmHoeU1omOhHdPKba27OlaEm2rnZxl0JHoEXKNt0XY0zVfQbzlWADBySGEeMshJOcQ/NMetuCtPWyryFsITghO3qNqJRB4eJiwh5PHCIITglMh4JOvVDEx4D25tQQGSvSIof/kGSXlEPzTHrbgrT1sq8hbCE4ITt6jIDgzYeRTEo2OhDcpEiAeIxsDCJjhxAAfzzzMiGXByIZ/6upFv8JbBf0KjxF4W86BaQhOCE7e+yE4M2EEwcnDhI6knB0Jb/nsM2IQnBCcWfhUpsT9wIEDNHfu3OBf/CpTO3V2RTt51vvUfx4+fJj6+/tpwYIFfMNiJXxqJ3jLmxeHBsUwkpIGI3o82aTYlmnJgWtJNHgL3oYIuOafrvlKmeIQx3okesUMCOGUWsxYc77pWxzCKbW8RasWb3vefPNN7WdR3njjDZo2bRqPXKyErYR2586dtHHjRhofHw9OwDK5Zs+eTevXr6cHHnig7TbX2sm16/Tp03TZZZdxxdBOQ4TAWx6wPAIFvNXjizhEZCvGg7e8b8M/i/HPSy65hDZv3kxf/OIXOzrDCXsWY09bM7k+2XPp0qU0ZcoU+v73v88HnlgJn9qJfoU3b2hPVnAq0vzzP/8z/8Qul5AIzl/7tV+js2fPdvlNUR0QmEQAvAUbgEA2BOAr2XBCKSAABIAAEAACthFYuHAhPf3008bVNAXnRO3S3a2mxV9++WXRt3SM3yrDDf/6r/9Ke/fuFc1wXnrppfTe976Xli1b1laTmtnq7e3N8AatRS5evBj8QY3kmF7SOlU9586doxkzZphWGZw2i3amw2bLnuBtHXPwVu+y8E8i13wFvOW7GfBWjxHXr2zbto0WL16c+B1OKbbgLXgbIiDlEMdbHcKPPPIIqaXiku9wIk9wL0/4xje+QWrSbmxsjHesWInMezjzrMM2fqsMN7i2v8fWEkwOiqqt/ebwiP8uXeZgy57gbd1C4K2eya7xlvM7G/Z0zVfAW44F8v13tuIt98Y2eKurk2snDg2Scwj+ybFdji3HW13NODSIt4trcUj3xh/96EdJzVRCcPJ2DUqoPZwDAwO0Y8eOtjuQ6PEjKqqEZHZUim2ZOhLXkug8HQnsyQccnzoS1+zpmq8UFYcksZZnZnlKuMbbPIJTdy/ayXMW8RYDmQoBqa8gH+J9DIJTcGgQBOfrNH36dJ5dsRJwSB4yfBaFxwiJARIDLjGA4Kx/FgWC046vFDWAgAFb2JOLfVwPiv7TDoeQ33LMI4LghODkWRIrgRGgYmZyXUuiEWB515H6ChLafNi65itF2ROC005yWZQ9IThhTwhOvm+Af/IYSXOTPHkfBCcEJ89MCE4jjPI4JGY4eagxQmsn6bLFW86iNuwJwdnJGc69tKFnJdHoBO1eEf3vFMvu3UA9K4/S0PEx2ng1Z/3G77V7NtDu2vMzlm8WO0HDi+bRsc3q3dQf1fttp2sy1i1NulxMaLdu3RocGKT+xa8ytVPHELST9x8b8VZXa55+ZWRkJPh0oeTQIJ/aWRXeQnBCcPIRCoLTCKM8ARaCk4caHQkEJzfKD8FpS3Dy/knGgjODiE2p9sTwIpp3bDNNRJWqqn/7NXR8bCNxerdMiZ46zXPLli2khCcEZwaexoqgX3GvX8lz4Cjs6Z49ITghOI0js7STtiXEuAaUJfC4lkTDnhzz5AcQuDiD4tPMgmu+UpQ9O7Ok1lAQdk1wpr1XfNYznbnSvqwoe6p602wKwYl4y/dIfp3yDsHJW9Sn/BaCE4KTZzRmOI0wsiXEXEuibbWTA9unAFumhBaC07OE9kdfog++ZxPND5bCRqyXIgj3buihlSOT5Qaa9+mX1AazjIOHGjcupKGh+TQ42LqkNvXZJ4Zp0bxBCu+mhUPNmcnW51Ltp+M0Fl2jG7RDrfTdTfGVuMG9e1axs5xl8k8ITs/8s3aol24Awad4q3vXPHkCBCeXDfk1gOCN4Gx2WAOjrctnGh1WtFNVnc0d9Hhr5xSxGxL3OhhI3N1bcoAlteUKsGVKaH1KgFyL8cXE2x/RQx98Dw3Ob+0zg7706KSwU+8W/I0my9XFHjX2YaYLznq/PDAp+gIRqFRrTXg29lHqnx3UHtkjWmdZa/3BHwJhWntos1+PP7eFnxlnWcvkn2rvptrrlrTfrUzt9CkO2RJiVbHnXXfdFczoDw8P84lBrATyW/fyWz8EZygqa9+/HBmJHUbQJjjrndfR+GgoBGcb++CQ7jkkBCffr4C3fvGWs6gNe0Jw1vdwnnzogzXhOD8yC5jUPyYctNPSr6YIznl1ERifQa2L0FBwcs9OEpwpfXjLjCbTzycMRCfxsCqJO9rJRSEMwHMISTmUZ4ZTWmcxA3yYseY45IXgrI921jrN49fQ9tgoZzjyOdnpQXByRg9/t5HoYUSvnuipS7J/CoKTZy94C8GpEPDJV4pKgHp7/6F19jDLzF9zlpKovqw2RXDWzpVNXNKqq6Pt2QmCM+3+VBGc5A98HsBxiItEiEOIQ3k4ZCtPAG/rCMA/3fNPDwRnveMYaSylbVsOFO2EGiOuzf0gFFnqE8HetdFvBB4uRGJvhkIIvEVHwnuK3FfKFIdc85WiEiA16BVdepq0nFa9W+t+yVq/2RjcrQ/kJgvOP/9RYyA4vocyJhj1z04TnJHNpDHSByI4ZXZ1sigEZxQ2zBTxkRMCxT2BAt6Wi7cdEZznz5+f0MFy8803B7M9Bw4c4NGLl2iMiDYPMIj//wKW1K5bt462bdvW1pbx8XHq7+83buOFCxeCe6ZOnWp8r7ROVdGZM2do1qxZXasT7eSh1tlz165dtGnTJlJl1LepTK7Zs2cTeAv/1HGmTP7pmq8UFW9nzJihNmg2ZiI/Sk80v6cZYULS8tMsS2qzzHBSwrLblD67/p3P2ntlmYVN2PfZyu1Jwfn9DZen0t6n/vPUqVO0c+dOmjJliknoD8qqwaTf+q3fovXr1xvfizxBD5mUQ2WKt1XpV9BOojy8Xb16NZ0+fZr2798vjkM9E7VLd3eek6baDiVodDThjCeW1L5O06dPNzaeugEjenrYpKNrtmaKXJu1sdVOjszgrV+8LcKervlKUfG2vqy/MUMZnIGQcKpr0mmvLQO7Zns4Ww78OZ6w7DY+aNwmHrN8hqV6ezife+45uu666+htb3sbXXLJJW1udfHiRVIn1ap/8esXv/gF3XDDDTQ2Nsa5Y9vviLeItwqBIvIhHBrEu6tP/tmRGU5rgjPhZDoFf4sILWCGc6DWce/YsaONCUU4pLTOohIgVW+n9zZyLumTQ/q0Lw2Ck2OevJOGf+bDFoKzPqsVxtrUU94VzCl9aHDWbHD43vHIPtBWMdh2mmz8lNq2Gc7GFpnms69uCuLoQX9tz232++mn37YwJtMsqV/+GQrOffv20fLly3kHiZS4/fbb6ZVXXoHg1KBWljyBI4ZP7cwzWeVTO6uSxzstOOPf4Yo7UtAZfuS7sZPy+L0briUjSNy5EOlXYmDLnuBtnSfoSDDizo24u+YrRfG2ObjXNqvYyqG2b2nWPmny7gfD02Y307F5wQcvY/s568/gvsOpf/YYqU9rNgWx5juctSOMWr+5WbHvcEJwIk8IEaiKQIHg5DnvUz7ksOBsjIRGOqBJ6E/Q8KJ5NEi1b4k9TnRHy9HsvOD81Kc+RV/72tfEe+EwwylbxmtLiHEu6ZNDYoaTsyYEJ4eQNBkpk39CcLbOcHKc8fP3tKW3WZbk1lss9ZUiBhAgOHmW+mTPMsVbnWXytBOCk+e8T/mtu4Iz44jswNeG6Oj66LfA9ILz7Nmz9Bu/8RtBRyM9fAWCE4LTVoCF4CxXgEUCVIw9ITirIDgbs6vHNtNEcNpQ41K5w/Zr6PjYRlILdnVX0f65du1a2rp1K82dO5d1FAhOFiKvBhDyCLGiectbYrJEnnaO1DadqwMSlZ+YXj4JsarY01nB2X5YUJxujRnQjw3Qwq+PRD4+rRect956K6k9EBCcmCniApg0COQJsBCcnFXAWw4h13jLva+NxACCsxqCsyY5g9VOxzY3TrgNDiDaTtfUlgSrpbrcJfWVTs1whgf8qIR6y5YtWuEJwclZ068Za1t5AoeSjXhbxAA82llHwCd7uik4Uw4LapOcG9Qek7k0l07S8vBI9VqhyT0jrXs+nnjiCVKC84/+6I/o29/+NmY4X32V5syZw/lt2+/SThoBlocagpPHyKcAK/UV3zoS19oJwVkVwcnHC12JonkbCk71qRN1yqxOeEJw8rYu2p78G3Zm5g/t5JFGnqDHSMqhPHm8m4KT55JxCbWU9qqrrqJrr72WbrvtNrrnnnsgOCE4tTwqwiEhOHnXRkfiXkci9RVbwhqCsy441YVTwdP9pWjexj9hohOeEJx831C0Pfk3hOA0wQj25NHyKR+qjOBUM5vqY6MqaD/11FMQnJ5NxSPwELmWRCOh5TsD8JbHyEaH6Zqv2BLWOnThnzz3ivbPpG9mqrdOEp4QnO7bk39DCE4TjIr2T5N3Rbzl0aqE4AyX0g4NDdHGjRuRuDd4YSPRQwJkb2bBtSQaAZYPsOgweYxsxKE8vjJr1ixasWIFrV+/vu3l1UFz/f39fKMSSvz85z+nSy+91PheaZ0XLlwI6po6dWrX6lQVoZ16uKP2XLp0qbZwVHj+8R//Mf3BH/xBcAYFvsOZDBviLe/qNuKtrbwPp9SWy56lF5zRpbQHDhwIrJcnGZk9ezbhlFqcUmsrwGJJbbkCLBKgYuyZJ8bPnDmTXnvtNf7FUQIIdBEBdbr+K6+8AsGpwRzxlickBKceIymHMADPc6/0gjO6lDY8ejxPMgLBKT8JDg7JOyQEJ4+RTx2mtPNSKKCd8sTAtRgPe/J+LfUVn/uVtCW1UbQuv/xyeuCBB2jBggV03XXXQXBCcFbm8y+Y4eTjpk95QqkFZ3wpbWg615IRnztM3h0mS6CdPFoQnDxGPgVYaRINgcLzwCdfgT3z2bOIFSXcG3ciDukEZyg0w28QYg8nZxH5YDj80x62efI+CE7eLp2IQ3wtncnjSys4k5bSQnC20sonoiJxx1LwkL3grXzmr6yJe7xdrg0qIqHlUxppjM+T0Err7JQ9o4JTnSas2nLFFVfQX/3VX7V97B6C0x6HOmVP/g07k7gXzdtutfPw4cPBnnk1u296IU9wL0/oiOA8derUhK5pH/7wh+nIkSOmfMld/m1vexv94z/+YxDAo9fDDz9M999/v/izKB//+MfpC1/4Qtv7qc5CcgS9+v6WutQBAaaXtE5Vz7lz52jGjBmmVQadItqZDpste4K3dczBW73Lwj+JXPMV8JbvZqrI23e+852kROfExASpPZqf//znafXq1Ylg/fCHP6Rly5aJl9S+9NJLwQn9phfiLeKtQqCK/mniK7byPu4dfPLPdevW0U9/+tNccainFiy1gvP6668PKvnTP/1TDruW3/Ma8H3vex8pRR2/XBv99nmE1sSgaCePlk/LBGHPfPbk7sYIrR4hn3xFtQT2lNtTd6fPcUiJzbQZzXibMcPJRUwsqeURQhziMJLOHvschzhMor/naWdHZjg5wSmtJE/DfEpGbLWTIxESIL8SIAyU1O0F3vrF2yLikGu+At5yLJCLBZ/7z0cffbRt6WwaUhCc9jgE/7SHrc/+yaMyWQLt5NGSasGof7IznNJKbBnQtWTEVjs58yNx9ytxB28hODmfVr9jhNa9/c5IaHnmgrd6jCA47XEI/mkP2zz57cjICPX19WUelIm2Avmte/mtVAtCcO7Y0WZNdJh6gucJPFJsy9SRQHBCcPJpAQSnwsg1XylTHOI4iETPTqIHwckxTx774J/2sM2T9+GUWt4uPsVbCM7a6InJhe9wyoN6nsADweleEg178pEDvOUxstFhQnDWD/lQl+SAN/C2GN7qaoXg5G0C3vIY2Yi3ulrzxCEIznLZE4ITgpNndKyENKjnCTzSOss0culaEg178q4D3vIY2UiAXPOVMsUhzqI27GkrofXJPyE4OebJB8Phn/awzZMnQHDydvEp3kJwQnDyjIbgNMIoT4DFYVc81D4FWJ8SWlu85Sxqw54QnJjh5HinfvfJPyE4eYv6ZM8yxVtbA0IQnDznbfSftuwJwQnByTMagtMII1sdiWtJtK12cmD7FGCRAHHWtHPqsGu+ghkUngdSX6lKHILgtMch+Kc9bKvin2gnzyEITghOniUQnEYY2Qo8riXRttrJgQ3BqUcIibt7+52R0HJeLZ9trEocguC0xyH4pz1sq+KfaCfPIQhOCE6eJRCcRhjZCjwQnHUzQHBCcCoEfFp+Dt7yIRQDJXqMIDjtcQj+aQ9bW/kQ98bIE9zLEyA4ITg5v237HYmBHjJbARaCE4Izi7PCPzHDqXhiKw5xHESiZyfRg+DkmCefJYfgtIct4pA9bH3jLQQnBCfvDZjhNMLIVoCF4ITgzEJECE4IziIFZxaOJpUBbzHDWSRvMVBiZ6AkTz501113BZ91Gh4eNg4rsKd79oTghOA0dmQkBpjhRGKQzW2kvuLbyKVr7XRtcKZK9szmGe2lpBzKk9BK6yzCnpjh5Jnlkz2rwts87cQptTznfRLWHRGc58+fn9DBsnr1ajp9+jTt37+fRy9SIg9Rx8fHqb+/P7G+Xbt20aZNm0iV6RMIznXr1tG2bdvanq2rU9dwW+3kwD5z5gzNmjWLK4Z2GiJky57gbd0Q4K2ekIhDRK75Stl5O3369AxRci9t6FlJR4eO09jGq1vKK6EA3uohPHLkCC1cuJD27dtHy5cvz4D3ZJHbb7+dfvKTnxjnYGXnbRRE9Cvu9Ss333wzTZkyJeC86QV7umdPqRaMxqGeidqla5pU1eZJ3H06UMJWOzkH9WlkBCOX7i0TBG85D8OeIh4hO4dAYYazuD2c6TZPF5zqHmmMr0ocwgwnH02kHFJPRj6kx1eKbR7/xAwnz3mfeCvVglH/hOBscKIIh5TWiQDLO7IU2zwBFgMlvF18CrBSDsE/eR745CtVsicEp53EHYIzX0zg7ka/Yoe3efIh7OHkWOvXQAkEp2BJ7cDAAO3YsaONCdLkMo9DSuusUgJUlo7EtVkb8JbvDOCfPEY2/NM1X6lMvN27gXpWjjSNvrBl+Wz7DOeJ4UU0b/AQqXLf33A5ZVua28qpqsQhCE4+liDe8hjZiLe6Wqvin2gnzz0ITghOniWxEtKgDofkofZp1gb2zGdP7m4kBvIRdwjOApbUNsTmwOgE7V6hbFcXmCMDozQR/KFVcIZiMyyPfkXPdwhOLmLKl2VXZkCo1lD0K/J+BcI6X78CwQnByUdxCE4jjGwJMdeSaFvt5MBGh4kOUyHg0+BM+RPaEzS8aB7tWRU7ECgQoUdp6PgYbbw6Ijjf/WAwEzopTuVioSpxCIKT6xnkHCq/f05ih/4T/SfXf9oS1hCcEJx8FIfgNMLIVgIEwVk3AzpMdJhch+mar5SetyeGadG8QZrfnN1scLTl7w3BWTtp9dCh+jLa6Gm1mOHEDKdCwFb/yXXi6FfQr3D9ii0hJo19vvUrEJwQnFwcbvtd6hzoSHiofZq1gT3z2ZO7GwmQPAGC4Oxy4p4mOBvLaCkQoo0ltrSQhkZX0Z6Ve2hVMPNZtzP6FQhOCE6uV8jnK74JFJxSy/PBpzwBghOCk2d0rAQSAz1ktoSYa0m0rXZyhPQpwEp9xbfEwLV2uuYrpbenyQxnY2Zz74YeWnl0iI6PbSSlOaUcqkocwpJarmeQc6j0/hmBzqf+E4KT57xP9oTghODkGQ3BaYSRrQTItSTaVjs5sH0KsNIkGgkQxwLs4eQQ6q5/Gu7hVNOaMZEq9ZXutnMS9W7HIQhOjvEQnDxCfm1JgeDkLdrtOJQn3kJwQnDyjIbgNMIoj0NiSS0PtU8BVppEQ3DyPPDJVyphT8NTahUmwSznyEBtxe1uWvL66/gsiob2EJz5YgJ3N/oVPULSvixPPgTBybHWrwEECE4ITp7REJxGGOUJsD4l0bbayYGNxMC9xECajNgSYq6tBrDVTh0TCvFPw+9wRj+dcn54CQQnBCcODeI6wNrvrsVbW3Ho8OHD1N/fTwsWLMiASmsR5Anu5QkQnBCcxo4sDXaFJEC11pUl8LiWRMOevOtIfaUyAsWSf7rmK1WyJ+8VySWkvlKVOIQZTp5ZUg5VyT/Lkg9xbEA7ITg5jrT8bqsjcS0ZsdVODmw4pHsOiRlOjrXlGUDgWgr/lPtnt2P8gQMHaNu2bbR48WLaunVr4otXxZ4cr9N+l4qFqvSfEJw8s6SopQXqAAAgAElEQVQcguC0h21V/BPt5DnUkRnON998c0JX1W233UanT5+mZ555hn+jSAlbBty5cydt3LiRxsfHqU8ww7l+/Xp64IEH2tryxhtv0LRp04zaqArbaif3Isoml112GVcM7TREyJY9wdu6IcBbPSERh4hs+Uo8oT148CBt376d1P9eeeWV9Dd/8zd0yy23JBqozLzt7e01jJKtxVXMBG/1ECrB+f73v5/27dtHy5cvN8L79ttvp//8z/80zsEQb3mYwVs9RrbyIc4yZY630bb71E6pFozGoR4Izhoc/+d/0SV/+LUWH1j/1Ju068PtbvF//tcl9IdfW09PvbmL1M9Rh3zxK79H79n0f4nWP0VvJt0ce1yeET2fiIp22kui0WGiwyzbwJdtwRkXml/84hfpjjvu0BKpzPEWgpNLfyd/l8ZbCE4eY+QJPEY+xSG1h1NN4lx77bV8w2IlfGpnVXjbEcE5Ubt0bJBOo9oaGen0cqv6SXtE6544Tw/fMr0ORXh4wsAoTexe0QJP9GQ+9UvYzpMPfZDmDR6igeAj2dn8Kw9Rq7LEqyzt7DRvQ4ZJOWTLPznml8WeaGcdARv2tOUranbpf//v/01qCa2a0VTLZ9euXcuZ0lo7dRUX5Z+ZwEgohDikRw5LanlmSTlkKw656J824q2tduKUWp7zPtlTqgWj/tlTacEZOQp+eEnsWPe2Y+JDLTp5FHwoOOszmz00dHyM1CfKsl4IsDxSPjkk9nBWx55cS8vC2yLa2WnBGe7RlAjNsP2wp54J0r6sKGHdbXtCcHKRpDqnt0p9xTdhDcHJc77bcShPvIXgFOzhHBgYoB07dtSYUP/Y9SAN0fGxjXR523fEWn8PdWR8hvNHX1pYE5tUE5uHjMSmomJVAg/aSdTpJDoMZVJs8wQeaZ2+dZhoZzEdZqd8JS40/+Iv/oJU/JdcPiUG4C1v4W7bE4KTtwl4y2PUbd7myRMgOMtlTwjOXIJzL23oWUkjjWWzScEuLi4VfVr+FsyCPk9/8/+eoc+92/zgBQTYcjkkZjirY0+upT4lBq7FobyC88Mf/nBwyEp0RlPZ65FHHqEpU6Y0Tbd///4WM6rD6I4cOdL8m9p7NDw8HPz/0J5Lly5tuWdoaKjlO3NKWAwODjbLXLx4MTiUKHo9+uij9NhjjyXWE/5xyZIlwX/29PQE/7tmzZqW5b/xelSZ8F1Ce2apJ95mlVTce++9Le/LtVnVI8U2mtBy9XQKW1XPr371q+ahg93A9ty5c/Tv//7v4kODXnnlFRobG+PCTtvviEN6yKSxL48Qk9YZjUOmRJDWmaedEJy8lXzyTwjOPILzxDAtmldLDIaO01htHWySQ54YXlTbl6mKTC6VbQrOUaKVavNn7brxb/4fHfrcu3l2xUpIg4BvgQftxAxnSH2fAix4y4c0G/bMKzhvvPFGeuGFF+ill14iJdy2bNlCJ0+epL/7u79rEZxKkEYvJb6UqAkv9cHyuOAMhWBYRv0e/bC5ul89J7yU4Hz66adb6lECTf1Lqif8m/pEi7pCwan2mkb3m8brUWXDd4kKTq6eeJtvvfXWNsHJtVnVIcU2mtBy9XQKW1VPVHB2A1slOJ999lkITk1IQbwtJt7qas0jOGHPctkTgrMwwamItLAmRB+ni5+cR+pgWpPDgkIawiHL5ZCY4ayOPbmW2hBiVUkM8grOcNuEEkLqYKBQeN533330oQ99iDNd4u+wpx42aV9WlYQWS2p5t5NySD0Z/gn/VAhIOVSVOJSnnRCceQQn5VlSOykw/+dHX6Lfq23i/L80QKMTuynjAbVBdJA6BwKsvc4rj0NCcPJ2QWKAxICLfZ0SnCHSceGpZjzjs2kcc8Fb8JbjrQ4hCE7Ow5AP8QhBWHMYSXNqW3kf974+9SsQnLkEZ2cODVJEbX5/M+EzKjrCSZ0DgpNzY3nnZSvwdDqJDhGQcshWOznL+BRgpdjCPzkW6P3Tlq+MjIwEB8ZFl9pmFZ7gLQQnBCfv1+hXeIzQr/AYId66F28hOHMJzppBO/RZFKIX6aEPvodqn+E0WlqLwFOdwGMriZZyCIkBzz0pthCc+bC17SuSGU8kQO4lQD75J2Y488UE7m74p3v+qQb4+mo5etZvHUdbAHu6Z08IzryCs2bT+sFAh2jdE+fp4Vum163cEKI19UgTu1sXycZPrp1M3P+hfuqtwdJanzpMCBSuyytm1kbKIdgznz25u9FhyjtM24IzfDMT4Ql7yu2pu7MqcQiCk4uY8lVJGOCzh20e/8QptbxdfOpXIDg7IDgDStROrL2xdhzt4SY/1IFAkyfTRmmTLjhrn0UJhWpG0SkVCwiwvCNLsc0TYLGHk7eLTwFWyiH4J88Dl3wlFJ5qJF4dMpR0gbcQnAoBaUyA4MwXE7i74Z/u+ScEJ8dav/bkQnB2SnDm6EhsCRSOqgiw7gVYl5Jojj/gLYeQPLmE4MyHbbdmOONvefbsWZo5cyYE55w5vAFjJaRCrCpxCIKTp5SUQ4i39rDN458QnLxdfMrjITghOHlGIzEwwihPgIXg5KH2KcAiASrGnkUJTl1rwVu/Bvg45nbbnhCcnEUwwMcj5NeM2F133UW9vb3NbxlnaV9Yptv+aSvv49rsUzs7IjjPnz8/oQNl9erVdPr0adq/fz+HXcvvFy5cCP7/1KlTje5ThcfHx6m/vz/xvl27dtGmTZuCMmpDssk1e/ZsWrduHW3btq3tNl2dujpstZNr15kzZ2jWrFlcMbTTECFb9gRv64YAb/WERBwics1XwFs+iIK3eoyef/55uvHGG+ljH/sYXXXVVTygkRLf/va3g5l30xwMvOVhBm/1GNnKhzjLIE9wL0+QasFoHOqZqF26pklVra0RA9dGv221k3NIn0ZGMFNEBN7WGQ3e6j1b6itlikOu+Qp4y/VG8tmpMvFWh9ILL7xg/O3X8HkqRfvd3/1dGh0d5Q0RK4F4i3irEEC/oudBVeJQnnZKtWC0/4TgbPAQDgmHVAjkcUgsqeXzISRASIC4BAiC014c4jwU/gn/5PxTh5Ct/hO8xYAtxwHwlkcoj39CcAqW1A4MDAQf/45fEJwQnBCcfMDKE9SjI13ZaposBf+sjn9CcEJwZokP0piAOMSjK8U2T0IrrRP2hD1DBKQcAm95DkFwQnDyLImVgEMWk7i7lkQjwPKuI/UVJED5sHXNV2DPfPbEjBg/gNDT00NbtmxJ/CwP4hDPP8zM6zGScihPnoBTasvFWwhOCE6e0RCcRhjlCbBYUstDjcTAvcRAmozYEmIQnLxA0bHINXtCcPL2hOCU7zO0FYfAW563OowgOMuVD0FwQnDyjIbgNMIIgpOHCwktjxGEtVxYQ3DmS/Tgn/75JwQnBCfPWr8O3YPg5C3qU54AwQnByTMagtMIIwhOHi4ktDxGPnUkrtkTghOCk/ewcgkUCM5y2RMrEIggOPko5lOeAMEJwckzGoLTCCMITh4u1wQKlj6VS6BAcJbLnvBP3p5bt24NPpui/sUvxFu+T/Ipca+KPUdGRqivlqOvXbuWN2CsBOwpXyFkK95CcEJwGjuyNNjZEmJcA8oSeFxLomFPjnkYcecRsrPEyzVfUTiUJQ5xNkU73Uv0pH02eMuxXR7j0X/awxa8tYdtHt5CcEJw8szEDKcRRnkcEocG8VAjoUVCqxDwyVeQAPF+LRVFtuIt98aIQ4hDXByyNVMk9RXEIc6rMYDAIZQn3kJwQnBy/Gr7XRrs8hBVWmeZAqxrszawJ+864C2PkY3E3TVfKVMc4ixqw55I3PkltTqMEIc41mIFAoeQlEPIEzhk5SLXt34FghOCk/cGzHAaYWQrwLqWRNtqJwc2ElrMLHAzC675im+JgTS5RDu56CVPLrl4e/DgQbryyitp7ty5HRskhj2LsycGEIgOHz5M/f39tGDBAt4QsRLIE9zLEyA4ITiNHVmajHAdJgKsX8sEYU/edaS+gkQvH7YQnJgR4xkkF38u+idOqS2XPZEP4ZTaLDHMJ2ENwQnBmYXTLWWkSTQECg+1T/vSYM989uTu9qkjkcYEW4k7BCcEJ+df3Cw5d79r/gnBCcHJcdZWvNXVy+UJv/rVr2hiYiLxEcuWLaMpU6bQP/zDP6RWoWZAky7X/BMDCEQdEZynTp1KZksD4XXr1tFPf/pTeuqpp7L4Q7PMxYsXg/9WhDO9FMl7e3sTb3v44Yfp/vvvp/Hx8eDIZZNr9uzZ9PGPf5y+8IUvtN2mq1NXh612cu06d+4czZgxgyuGdhoiZMue4G3dEOCtnpCIQ0Su+Qp4ywfRKvB2zpw5PBAOl1BJfNarCvZUWKCdekZw+dA111xDZ8+ezUqrtnIvv/wyXXLJJW1/R57gXp4g1YLR/rOnNjqhFZxSVcuNjOjgxEwR778YAdJjJJ21AW957kmxVU8Gb/3iLccGG/bEDCdmODneqd+LiENZ3qsMZaTY2uo/OUxtxCFdnWhnHZ1Zs2bR+973PvrDP/xDzkQtvz/99NP0zW9+M3XiCPZ0L0+QasFo3gfB2bArAiw/oqJKpM08SwcQuChVlsDjWhKNDpNjXjEJLeIQkWu+goESe77iWxzikShHCcQh5EMKAc4/leDcsGED7dixw4j4Dz30EN19990QnLVVB5KVE0X4JwSnYEntwMBAonMUYUBpnUiA+NgmxZYLsFJh7VoSbaudnGXKMoCAdtYRsGFP13zFVjt1HIJ/ch5WzIAQ/1a1Ens30AbaTbtXZCrdgUInaHjRPDq2eaJR517a0LOdrjk+Rhuvlj3etf6Ta4WNOAT/hODkeKd+l/qKb/0KBCcEZxZ/aCkjdQ4kQDzUWArOY4TEQI8R/BMznFlmFqQDX5yHwj85hLjfldhbSTQaij+ufP7fTwwvonnHNtNEVOHWRG/P9mvo+NhGkmhOxCG9XZAP1fHBDCcEZ5YIFvYrWFLbQAsBFgHWZqLn2qwNOkw+TEpjgm8jl6610zVfgT3t+YpvcYhHotuCM62++Kwn/+bREtKY4Js90c58eR8EJwRnlsgCwRlDCYEnX+DBiDu+w2kSeLKURQKUHaUyJXoQnPxSNsTbYhI9OjFMi+YN0qGIAQbC2cz4bwuHJmcY1YzjypHmXQuHjtNYc71rYwns0HwaHFRlBmoTpLspXJEbzGAOTtbYcm/wXDWhOlk+rCS4b88q0Swn8iHkQ1kG4CE4i4lDRfgnltRiSW32jBQzuZmwspW4u5ZE22onBzKW7OkRKqIjkdZpa+bPNV+x1U4dE+CfXCQpINFrCMr50eWyDSHZFJ2UMOOYUmZkYLSxDLZ+z0hUoDaaXxebREPhfszGO9T+EAjWvRt6aCWFz4lhFtR7dPJeHtJmCWlMAG95kKXYuhiHIDgLiEM1Ikg5lMc/ITghOPnohplcI4zyOCT2cPJQQ3BCcCoEfPIVFxM9zHDKky6xPTWziZP2iAvO+tLWPauiM5q10i1isH7P0ZZZT/XElL833+Oj9ETifU21GszGtghkPkQHJYpIaKV1iu2JdrJs4PIhCE65r/jGWwhOCE42YMQLSIM6F3iQAPmVRMOevOtIfcW3jsS1dmKGE0tqee8sItFrzETGlry2vmtMcCbNiqobWv6esg8zbYayee8o0UrdAUVpQpZHVxoT0K/Yw9bFfgWCs4g4JK8zj39CcEJw8tEtVgIdiR6yPA7p06yNrXZyhMQMpx4h+CdOqVUMgX9ykUSedOVJ3GtKMZixjGyppMnltJOzks1TatMEZ8vSW53gnNz3GUdk4GtDdHS9bgYTgpNjEeJtvnwIgrOYOFQEbyE4ITi5eNr2exFEldaZJzGQ1mkr0XNt1sZWOzlCQnBCcCoEfBqcKVMcgn/WEZDGoTh+wR7KkYWRfZJdmOFsvgR3Ii4EJ8d31/IE7n2lvLXVTghOCE6Os9F4i8+iNNCy5ZA6Y0jrzNNhSuuEQOHdyqckGvbMZ0/ubtcSA5/ikGuDM4i3HNvlSZdvcagdibjok+/hbP92Z05BmTq7CnuGCCAfwgynQsC3OFQEbzHDiRlOvueIlSiCqNI6y5TouZZEI8DyrgPe8hjZENau+UqZ4hBnURv21NXpVRxK2lPZ9reEWcWMp9S2C0611TN2Sm0NzOis6rsfxCm18E/Oq+0NCGGGU46tb7ztiOA8f/78hI6uq1evptOnT9P+/ft5VkdK5OlIxsfHqb+/P7G+Xbt20aZNm0iV6RMIznXr1tG2bdvanq2r01aHKa1Tvc+ZM2dIObvpJa3Tlj259y9LO8HbuqXLYs+q8LaIdrrmK+AtxwIK+uO0Prss/ef06dMbp8tG91VGl9PWW1oXhLX/MPoOZ/rhP/HvcLZ8p9PgO5xqAC3rVQV7KizQTj0juLzv8ssvp09/+tO0Y8eOrNQKyj300EN0991309mzZxPzeOQJejiL4K1UC0b7TyypbdhVOpvBOaSONtI61TMxEq13SCm2tuzp2qyNrXZyvQ546xdvi7Cna76CeMuxQD7K71sc4pHodom0ZbfcclzEIYWAa3kCxx7X+k/McMo55Fu/0pEZzonapSO5tBJbHYlryYitdvoWeCCs/ToIBbzlPKw6HYk06bLVYboW4221U8dA+Keb/sm/VfdLBDOgxzbTxO4Vk5Wrmc/t19DxsY10teCVpDEBvOXBlmLbjTi0detWWrJkSfBPXZw9ITirkydItWCUt5jhbMQHaRDgHBJCrDoOiUOD+M7WtRFa+Kd7/gnBySd64G0xvOUjXBEl6p9qObZ5guqaU81ubqdrjo/RRonaxMwfa8Sy5n1KaB48eDAQnFu2bKEPfOADARa9vb2JmEBwFhOHitArEJyCPZwDAwOJ682LMKC0zm6MdMWjS1kDbLfa6VoSDXuyOYV4uRX8Mx+2rvkK7JnPnrq7fYtDPBLlKCHNTXyzJ9rZytdQcCqBqWy5ePFi2rx5My1btgyCM8W1pRzyrV+B4ITgNO7dpM6BjoSHGjOcPEaY4dRjBP8kguDEDCcfSco1sxBfyhhtvzQm+JbQop086233n6HgDN8kFJ7hjGe41Db8HTOc5YpDOgZCcEJw8hEqVkIa1CE4eaghOHmMbHeY3Zqx5lqKdsqFNQQnBCfnX+p3aV8GIcajK8UWeYI9bLvB27jg5IQnBGd14hAEJwQnH90gOI0wstVhupZE22onBzaEmFyI6e4skz3z+IpKgFasWEHr169vg0t6lLx60M9//nO69NJLOXp3rM4LFy4Ez5o6dWrX6kQ7eailHII97WEL3nYO240bN9KRI0dSHxif8bzttttow4YN4s+ipH3eEHmCe3kCBCcEJx9pIDiNMLKVuOdJomfPnk3Ye/w6Bd/BM7xs2ZN7DXSY8g4zj6/MnDmTXnvtNc48+B0IAAEgAARyIvDWt76V7rnnHghOQW6ioPcpT4DghOA0DhdYKqOHzJZAyZNEQ3DKl63YsifneD51JNKYYKvDzOMrmOGUf8weM0WcV8uxxQynPWzB285hm3WGc82aNaT2Hd9www2Y4XxdNhhuq//UsSFPPgTBCcHJRxrMcBphlMchsYeThxpCTD7zZ6sjKZPgtDE441ti4Jo9q8LbPO3s6ekJPkOhkvj4BXuiXwkRsN1/cns4Q6E5d+7c4JWwh1M+GO5bvwLBCcHJR2IITiOMIDh5uJAA8RjZTgzib2CLt1xLbbQzzwwnBGd1EqAyxSEITvCWi7XdEChpp9TGhWb4rhCc1eEtBCcEZ5YY1VJG2kmXKaHNMxKtuxcznDwdbQiUIuzJtRTtlM/kQnDilFrOv9Tv0r6sG4m76YAQBGe57CnNEzje2+5X4t/hvOOOO+iLX/wi/fZv/3biq0FwVoe3EJwQnFx8avtd2klDcPJQQ3DyGNnuME0TPV8TgzK3E4ITgpOPJOVK9CA4y2VPX/uVUHCGM5rvete7gqao02mTLgjO6vC2I4LzzTffnNA5hzr2+PTp0/TMM89k6QOaZWwJlJ07d5La2Jx2nLLuJdVyK3Vc/gMPPNBW7I033qBp06YZtVEVttVO7kWUTS677DKuGNppiJAte4K3dUOAt3pCIg4R2fIV6WAbeMsHUfBWjxHXrxw8eJDUvrgrr7yy7UHgLc8/9Cud6Ve+8pWv0C233NLkIcfbd7zjHbkODfrlL39JfQkTR7BnZ+zZyYFpqRaM9p89EJx1k6DDzNdh6u5Gh2kviQZvwduyDXxBcGIgk5cY+WYWkNC6l9AiT+BZ7xpvITirE4c6IjgnapeO5tJpVG5kRCpQXFtuZaudXOjB0kQ9QtLOy5Y9wdu6vcBbv3hbRBxyzVfAW44F8qTLVrzl3hhxCHFIIeBanuAbb7GkVs4h3/oVqRaMtrMHgrPu4gg8bs4UlSUxcC2JRqLHde3ymOBbRyKNfbba6Zqv2GqnjoHwT/hniIBr/gneFrcCwbV8CIKzOnkCBCcODeJ75VgJaeeFBIiHGocG8Ri51mHq3ljqKxAoPA988hXYM589IVB4gbJt2zZavHgxqUNb4hfiEM8/9Ct6jKQc4vI+CE4ITt47J1e2YYazgZYth0RCWx2H9CmJ5joS8Ba8NelIspSNlvHJVyA4eeui/9RjxMVbnFKLeMt7mXtbUiA4q8NbzHBihjNLjGopg8QgX2IgFWKuLRPkEiBpOzlCYiS6mJFon+zpmq9AcHJeLU+6EIfq2EJwyjkE/yzOPyE4q8NbCE4ITj7SxEpAcEJwKgSQ6PGuI/UVJED5sIXghH/yDCpXogfBWS57+jTAp3tXLk+A4KwObyE4ITiz9MuY4TRAiQuw0o7EtSTaVjs5qDHDiRlOhQCW1BYz8AX/rCPgWhyC4KxO4l6mgUwIzurwFoITgpPLH9p+lwY7CBQeap+SaNgznz25u11LaKUDJUW007XBGRcFik/2zDODgnZWJ6GV5ibwTy5KyznE5QkQnHJsfeMtBCcEJx9pYiWkQZ0LPEgM/Jq1gT1515H6im8diWvthODEklreO6uT6LnmnxhAgH+GHIDgrE4cguCE4MzSL7eUkXZeECg81Jjh5DHCzJ8eI/gnEQQnElo+klQn0ZPGBAx88SySYot8qI4tBGd14hAEJwQnH1Exw2mEka2OxLUk2lY7ObAhOCE4FQI+Dc4gcee8Wp50IQ7Zwxa8tYcteAvBGbJLOmjhm39CcEJw8hEVgtMII1sdCQRn3QwQnBCcEJx8SLIVh7ia4Z/F+OfSpUtpzZo1tHbt2rYXqEpCi3Zy3ule/4kZTvlgm2/5EAQnBCcfoSA4jTCylehBcEJwZiGiNOmyxVvunW0IFNd8xbfEQMohtJNjuzy55PwTp9TKsQVvi+MtBGd1eNsRwXn+/PkJHV1Xr15Np0+fpv379/OsjpS4cOFC8P+mTp1qdJ8qPD4+Tv39/Yn37dq1izZt2hSU6RMIznXr1tG2bdvanq2rU9cAW+3kQDtz5kywft70Qjv1iNmyJ3hbxx281fMP/knkmq+At3wvA97y/cqMGTN4IDUl1ECC6YV4i3jL5dR58tvLL7+cPv3pT9OOHTuMqPnQQw/R3XffTWfPnk3M48Fb93gr1YLR/rNnonbpmiZVtdyInq5On/b32Gon5702ZhZ0daKdnEX82pcGe+azJ3c3/FOPkE8xXrUE9pTbE/1K/RCo3t5eLmx0/HfwFrxVCEhXPXB5AmY45dj61q9ItWC0nRCcjXhkyyGlwprredCR+NWRuLZMkOtIwNvqdCTS2Gerw3TNV2y1E0KsWqfxQnDa6bPhn1y2KO/LuDwBglOOrW+8heAULKkdGBhInP6XJl2cQyJxr45D+jRrA97a66R960iksc9WOyE4qyXEFI8kYsw13nIDCNnauJc29Kyko0PHaWzj1XyQYkpgYNqOyEX/WccVgrM6+S0EJwSncYck7aQRYHmoITh5jJAAIQFSCPjkK7aENSdQqiLEqtJOCE47sQ/+yfe7tvI+CE4ITp59k1tSsKS2gZYth8QMZ3Uc0qckGgMIfJiUxgQkQPmwxQwnZjh5BvnXr0BwQnByg20c710bsIXg9C8OSQf4MMOJGU4uPrX9Lk2iIVB4qCE4eYxc6zAxIORehwnBCcHJRxL3eMvNWDcF594N1LNypFl8Ycvy2fYltSeGF9G8wUPUWi4LQjjsikMJ+ZAeIS7vg+D0Lw5BcMY4j8SdC5PoSDiEXOtIXEuiuY4EQqw6HYnUV2zN5LrmK7bayQkUaWLgmj3RzsgptQ2xOTA6QbtXKGTqAnNkYJQmgj+0Cs5QbE6W53q+1t8xwGdnVhX9Zx1XCM7q5AmY4cQMp1nvUystTUYQYHmoMVDCY4QECAmQQsAnX4Hg5P0a/Qo/U9Tbe5KGF82jPatiBwIFIvQoDR0fo41XRwTnux8MZkKlYhO8BW9DBGz5JwSnPKf2zT8hOCE4+YgaK2Er8GBGzK8kGgMIxq5jdAOEtVxYY4YTS2qzOJu0Lysq0es9+RAtmjdI85uzm41WnhiO/L0hOBcupEOHZMtoo9ghDsnjkO5O9J+Y4cwr5ouKQ6rebPvJWz0AghOCM0u/3FJG2kkjwPJQ+zRrA3vy9sxTAomePNGD4ITgzOJ70r6sqEQvVXA2ltFSIEQbS2xpIQ2NrqI9K/fQqmDmMwsi7WUQh+RxCIKTj0OY4cQMZ5bIFMYhnFLbQEvaeSFx5+kmxbaoxEA6AgTByXPBpwSIb016CZ/a6Zp/QnDyiZ6Om67ZE4l7Yw+nyQxn4yChvRt6aOXRITo+tpEkmhNxCIJTISCNCVx+C8Epx9a3/BYznJjhNM6JbQUeJEBYUpuFjD4lQJPtMf8Yu0/tlMYEWx0mBCcEZ5ZY4hpvOWFtvIdTTWu2LLfNgkprGcQhCE4ITt5vOGGN/JYIghOCk/ekWAlpJw2H5KHGDOf/b+99YOaozrPvY2MwRg6hsUUIaQrJFzdN+1o4IVUwrYJpGwesRgRB7eglATwbTdoAACAASURBVMcipl/jBhvzBgh/gjFx21TIpoUSPy0pkL7S91KJIBGZOiQ1f1JTlyJhDKX5DJJpCf5q4sqA62Ic/Hx7zz7zPLOzu3PtnNmzM7P7G8kCe8/umXPd1/3nmnPmHI1RnQogBGc59kRwIjg18+o3sxC9N5Vzl1rDIZrlHFvZWHG72UUb2+a46hRvfWuTUA++1AME+9znXbhhGicznPWLQ768RXAiOHOknmZT32CH4NRQIzg1RnUqgBCc5dgTwYng1Mzzz2VlCRTfczjbj07pBZ1mmzrFW9/ahHFqPvhiq+o+BGf94lCpgnPv3r3jWXRdsWKFe+2119xDDz2kWZ1ocfTo0ehv06dPz/U9a2wk7/bk6O6773Y33HCDO3z4sDvOQ3Becskl7rrrrmu7p6w+swYQapwKtIMHD7rZs2erZowzJ0Kh7Alvm4aoGm9POeWU5o15Hsb+iVu2u4e+/ME2llVtnFlu4Bv7QtmzLF9544033IknntgRKuyZHUh9ORQq3qqwX4Y9Tz31VHVbmZ+beMx7lTHOEHWfGjfjLMc/f/VXf9X9/u//vtuwYYMyUcvnd9xxh/vDP/xD92//9m/u2GOPJX/mQi9bI4XSK75aMFknsGnQhHVCPQHKMr5vn/abPLnM9lBfbNUTPV97Vm3WJtQ4VdysJG9zLnPr5TD2So6zi3F8fSVUHBq0r9xzzz1u3bp17rLLLnM333xzR5SwZ73ibRXjkM/ySzUO9Tm8hbeGgG+MV3UCM5z+2IbKn1mMV/bM+i5Laj1mOFeuXNnxaUwoh/QVKCSSJgLDkjAHXUQr/hQJPL6+Uk17vhjkMPZh4a3iUYhxDspXYqG5Z88ed84550Ric9GiRQjOeNZfGT/xuW9MGKU4hOAMI/6qmVe6j9XXV6o4TgQngrOXNMGxKCmUfIPAqCTMXkjVrY0vtlUMsL4PEAZVRPdqp1HhrRxnt10gCx7GHkKIhXpyWTX/DO0reYRmjDn2DCMWpH9mdFs13ir/RHCG4dAw1Qkqf1ctDiE4EZyKs0n/ZEntBFq+yWtUEmYvpEJw/rebNWtWRxhCF9F57TMqvJXj7HrsQPMoFN/D2KtWGPg+KFG8CjHOUL4yNjbm/uiP/sj1MqOZHneIcSqBYp/7iBTfXEbhrtjuX1z6vuOq7yi7BbwNI3JlXhmiByVZcQjB6R8T6hZvWVLLktrc+ahIMZK7s4Jivm4OyS61miGVK4DyzHDmOIy9cuOsUQHUb8HpM6OJ4NS+nGzhm1co3DXOvtgOU/5UKBFvyxHWCE4Ep/LNZBxihrOgKBqVhNlKqubsz66JAlwRjoTpXL+L6BhzX2xHhbd6nDnf4ezxMHYKIP8CqF++khaatjv5Zz7zGRWuOn6OPf3tmfVN7Z/dv+0b+xBi2gV8scWe4bCtIm8RnAhOzfipvVgQnAjOXviSaoPg7AQaM5yaSpUs3HPuUmujVIexV3KcXczjW1yGKoCKCs6zzjrLPf/885NLZ+fOnev279/v7AgOO6bLdqNdvnz5JBrPPPOMW7NmTQs6GzdudAsWLJj8t9tvv909+OCDLW22bdvW8vfVq1e7nTt3Tv6b9bNs2bKWZfbnnntuZj/xvYyPN08rmzZtmlP9nHHGGW7Tpk2Tv2v2XLKksRw8cfUyZusnyVsT7Pfee+/kr6T7sQ/iMftiawLlvvvuc9/97ncHhq119Pbbb0fHqg0K20ceeSQaX7xEehDYWn/w1jl42xRFPjFB8fYf//Efo9jpeyxKt+MNyZ/ZtZRvzi7yQIgltSyp1RV+qoUvUVt/BsHZCXgEp6ZjZRNJznM41WHslR1nBxMViQkhxllUcJ533nnulVdecY899pg7/fTT3S//8i9H5zbHosjEZlpwmnBKXibg0oLze9/7XkubRx99tE1wmmCML+sjLTjTu+Cm+7Hv270kBafqx+4zLTjPP//8lnvrZczWT1pwmjCKr3Q/seC0e/bFNhacJjqTlxpzEWyTglP10y9sf/jDH7YJztDYxoIT3rb6B7xtelovMUHxdseOHQjOhpjvtneHqohC5M+sPhGcOQugosUIx6L06Bw5C/D4bMKFHZbZVq2gDeWQVROcVkxZwW1/0leRwDMq9lTJIuvzOiWSqtmzXzHe+G9HncTC8+tf/7r78pe/7GVW7JkNmy+HiENNXO0cWDuap9OxPL7Y2u/CW3hrCPhySPknS2r9sa2bfzLDyQxn7uKpp8CTc4lhLDZXbhl3m1sfrEf311OfXUYyLAmzX0V0GqZO2FqhbQWM/ffKK69smf2Iv68SSRaxRsWeuZ0r8YVh4a3CIMQ4++0raeFpItSWmOa5QoyzjAdfasyMsxyBYkunv/GNb0QPSHqJ8cqO8efYsxx7jkr+RHCOTn2L4ERw9pp3JttpsZBzE5WP/KmbtmTMdRObCM4m9P0uomODJu2ZFJqnnXZaVLwklw4myYLgzO06ub5Aoedf6IXyla1bt0bHosQznnmEJ/b0tyfC2jkVbxGco1O46xqsu8dULQ4hOEeHtwhOBGeuIrgn8ZfnmIiFC92TTz7pOi2jTd7YMAVY3yeXoYpow9beo4hnNJXQjO9fFUC+41SErFrCVPfr+3mdxlk1/wzpK/aujc+MJ/ZEcPaUP7vApOItgnN0CveqxdsiD4QQnKPDWwQngjN3PSyDXTfB6ZobBblo2Wzz/8fcQrdxy1J3/5L73dLd252dGNHpkn1mjGJYCr0QRbQVzrYM6/HHH3e9Ck0EZ+8uA281ViH8M4SvdBILaeFpO9NaUu10hRhnkUKPB0LDVejZu5vpTVxiGxOHyolD+KeemUdwDlccyuJ8XwTnoUOHmvuvd7lsl719+/a1bR+uQoB6opf1fdtRcObMmR2b3HXXXW7t2rXRroO2rXmey7bHX7FiRTQblL6y+gwVeHz7tPuxbf7N2fNeqs9ZP93szp63xs1Pv4/ZIkRbd6mNjojYtdHt3r7avb8x49YvbEOOsxtudeCtCUzbhtz++4EPfMDdcMMN7otf/GIuKoQap7qJULwdtD0ZZxOBEPYcdIw3P/rmN7/pPvWpT7nrr7++o2lDjHOU8gr++fMIgvhYFBU/kp+rnJ31W/A2G2lfbMmfTVzf//73u1/5lV/puNlVFvJPP/20+8EPfuAOHDjQsY6Ht9Xjra8WTNYJnMM5YVffp4hFAo9vn3bL4Z6453yH06Y1u86KNsGt5jg7O3Qoe/Zj1mbx4sVtS2fTxy70WsiEGqfqPxxvB2tPxtlEIIQ9++Ernc6FIw4p1oaxZ1avxCFtE3irMQoRh+CtnuG0I6f+8z//syNUdrSTLRXPuvbu3euOPfbYtibYM5vzvjGhSLztywxngxSZM5y+nRQZWNWOlxi5wJNzl1rDJ5rlHFvZWHG72aU3qvV1jlAFbRn2LFJE20y2/dm9e3fLrdty2muuuablDKh0gLeDzZNb7dsywvTh8+kQYO1tY5X4su36k+fVmT1POOGEtntJ7rDYrZ9kIrH2ydUG6X6sg/S9pHdy7NRPcswWh2655Ra3fv36lvtVY64btkeOHInGF8+gDAJb6+/qq692t912W9+xtR/0XcXS76OvhikOqdKdQq96hR75U7GWByUKIV8Oharj1f0Sh6oXh3y1YDJ/MsM5YVccMkXwnOdwNiRn873OlVvceOpsFF9sh6nQKyI4bSn4pZde6k488cToiJPXX389OpTexOYFF1zQIjjT2+rbe0HJczj37Nnj7MBxO6jdrunTp7dtxW+fW7v4su8nd7s1e/7Jn/xJC2FMGCaFbdxPspHdWzKRmFhMCtl0P/bd+F4s8ZmY6qWf5Jjteyaen3jiiZb7TeOUHrP188lPftILW+vo4MGDbvbs2QPD1pZVJwXnILC1/h544AH37LPP9hXbf/qnf3IPP/wwgrOBqs8STOKtKmcRKAohXw4hUBSyrPjSCOGfCqMy/BPB6fEOZ96n37bG/Pbbb+96KPOoBFjlAFmf+zoHgrOJqgnOmLfGRxOdsfC0dzdtBi8pKnux1ajwlnFqNlTNP4s+nMkb4zVCFEAKI18O4Z9NZNmlFiGmfKxu9ZC9E28PtJMPlXsZY93G6Rv76jZOBGdAwRkLTSvs7f9tB8PVq1e3+cuoJMxeA0WndqPikINcCh4LT+PlG2+8Ec1A2jLQXoXnqPCWcWrPrZp/Ijj1u1M84BsugYLgHC574p8u2oQNwZmdf+u0dBjBGUBwpoXmZZddFi2L61bIj0pBq8vW7i2qVtBmjSWUPUMV0Rawvv3tb0/OePYqPEONU/GkTgEW3iprhpn5C+Ur2LMce5YRb9VIqxaHEJwITsXZus2IITi1RasWh7LuGMHZR8Fpht+8eXNUuJvoVEIzNsyoFO7adRCcg5zhjNGO+0wvtVXCc1R4yzi151ZNiCE4meHUrB0ugYLgHC57MsPJDGcvMQzBmULJV9WGKvT6XYzEM5q2NNE2Y+lVaI6a4AxlT+WUdXLIMgVnjGNaeI76UnB4qzyseoVev2N8+uGMRqS9xbDEITV2xpmNkO/DGRWHbBVVekM0eKvYOvU5vC2Ht1m9jo2NRWdsJjcc7NWi2LN69vTVgsmZ+ZHdpTa9dPYLX/hCdHRCr+/AITh7DR3VK2iz7lwVBr5PLgddRMfCs1sRE2qcihUkkuolEt8iOplIlN3Tn1fh4Uyee4a38NYQ8PUV4q32Nl9sQ8WhMuoEhRJxiDhUVhxCcHosqbXjJd797ne3LZ1973vf62w7/uR12mmntQhQK+J37tzZ0uY3fuM3or/H29fbcRAvv/zyZBvry46wSF7PPPNMNJtq58zNnDnT9dLPGWec4U466aTJn3nqqafcoUOHWn7XzjHs1E/8b9aPjXPWrFmTzZLnLdo/pvuJx/zOO+9E3znmmGOiHXuz+kmP2RKJD7bWTzLADgJbKwzMfq+88kpfsbXjI/7sz/6sMkc9UACp1O5fXFIAFcN20A9n9N2GeVeVgpalw71wDyGmUUKIIcTKEmKj4p8IzpyCc86cOc7+7N69O/JOW8ZiO3vGRPU5zH7YDlzftm1by3mKtqX1ueee2xLNxsfHW/5us2hJ4WpCMbkVtjmkD7bWTzKRDOIwexNidsyIzXYnLzVm45Gdi5kU8/ZeTvqqymH2CE5dxIxKIqnaOBGcCDHtnTwQ6gUjhBhCDCGmPYV6SGOE4MwpOOPzDBcvXhyJTRNJtoTW/n/p0qUtYkHD32wBUTVSVStoy5hZqFoRDW/hbYxA1fyzar5iOFG4U7iHLNytFkmvdKqqf5aRP1W0xj+r5587duyIVvClV/gpWxJvNUK+ObtI3Yfg9BScGzZsiCxqs3Cx8LRgv27dumjToDxXEQP6kgaH1BbyxTaUPatWRIcap7IMhUH1CgNfXwkVh6rmK6HGSeHOA9uYA+xSy4y1yp11i0Mci6ItWqd6qC+Cs7EktHV9ZAqjiy66yO3bt8898cQTGr1Ei1AF7Z133ulWr17t/S7c5Zdf7m699daWsdjTRROeP/7xj6OnjDfddJOzdz17uUKNU/VtNjn55JNVs7bP33rrLXf88cfn/h7j1JBlFe4heGt3hD2z7QJvi/FWfTtEHArlK0WEdYhxVlFwMs5sxoeKt8cee6y78cYbo9ojfcFbFYVcVKNSD3XHKRRvsyxjr2JNnz7d/ehHP9IGTLXAnuXEoaxefbWg/WZsz2kIzibE5pC2BMDe33v88cd7Fp4UtDqWkDCdC1VEl5FIsKfmPAnTP2GG8hV4C29jBKrmnwjOYjOcVbNnlqeNShxCcA5XvO2L4GxshpI5w+k7jRpKiA1iuVVyqW38jme3pbahxqmoWqep+CIBdljGOQjeKs4kP4e3Gi14qzEK4Z9V8xVDIcQ4qzjDyTizOe8bE1S8ZUltMcEJb8vhbVavLKktJ3+Gyiu+WjCZP0f2HM60UTolkqTwvPLKK6OjVNKXSiShnnQRYKsXYOt0tiC81cnAt7hEoBTDFsHJu42aQcMlUKzWsIfbnc4BJw5pNlAPVa8eYtOg4eItgrPgpkFJOmQF9axkQOGunYqE6VzVimh4C29jBKrmn1XzFR4ghPMV4lA4bOFtOGzhbThs4W04bIvwFsE5IMEZaoq6aoUe4ww3s1C1IrpI4IG3OiHwxN3/iXvVfIUCSPPdNyYQh8JhC2/DYQtvw2ELb8NhW4S3CE4Ep2ZmqgWFQTZkRRySJbWajggxfyE2Kg+EEJzhHnwpD8U/8U9DgDqhnDoB/2wiQByqXhxCcCI4VXxq+5xEUk4iqVoRHUpYK0KSSKqXSHxjQqjCoGq+Emqco/IAgXHqBwh2Bvg555zjFi1a1LecDW9VNkJYK4SK1AljY2PuuEaNvnz5ctVN2+fUCdWrEwYmOLdt2+Y+/vGPTyJgO7YmSfTMM8+4NWvWtCD0yCOPRH+fMWNG9N977rnH3XvvvZNtzjjjjLZNeOx8zZ07d7qjR49G5/d06mfp0qVu9+7d3udwrly50h06dCjqJ76sn2XLlrlZs2ZN/ptt6Zy8Nm7c6BYsWDD5T/GY401+bZc5wyl5xeOJ/y09Ziv0lixZ0vKdXrC1fpIO2S9s0zZMjtkCz3333ee++93vttyvGnMRbK2jt99+Owpaqp9+YQtvXXTObdI/+oUtvA2HbSjeZsUE88/bb7/dPfjgg32NCT/96U+9Y/x73vMe9653vct96EMfcvC2aZZec9kwxdsyeGv4+dYJ5kfxpkHwFt7GATXNpxDxtghvs+oE26V2165dLXUz9a1zSb1Up/r2ueeec/PmzXPbt29vyfe9/CXWKz3tUmuF4sc+9rHJ3zWxmRacVqQmrx/+8IfRX5OC04RRfJl4S+/6ar9hxogFZ6d+fu/3fs+9+OKLhQWn9RNf1k9acKafNNq9pgWn3W9ScNrmQskrHk+3MZvgPP/881u+0wu21k9acPYD27QNk2OOBaeJzuSlxlwE22QBpPpJ88kXW3jbFEVJ/+gXtvA2HLaheJsVE8w/rQD63ve+19eYYILTN8bHgvODH/xgFK+TOcY3JsBbeGsEL5LLVJ1gfnTaaadFohPeNsNJrzXYMNUJZcRbwy9EfWuC89lnn22pm6lvm4IztnMsOOtQ3z7//PODEZx2qG5eVVtkKp534fQzA5YcZGPku0wQ3mru+WJrvwxv68VbxYYQ9mRJbXMJZvywVtlgVD8fpjjEOZz+y1vJKzoC+PpKkXqIczi1XULkz6xei9hzYEtqEZzdTVjEgL5BgACrHdkX21D2rFoRHWqcyjJ1CrC+HMI/FQuyi8uq+UpZ9kRwhnk4U5Y9rd9uNrXZvPTsTzx64pCOJ+SVML5SpE5YtWpVxPdO59cri2LP6tkTwcmmQcpv2z73TV5FAo9vn1UsDLIAZ2Ze05FEUr1EUjX/RHD2c4bzYXfFtMY+AVvG3ebzk//fhYcPX+GmLdnlNu7e7lZ/WPtz1KLxnSvc5sbv99h+stmLbtPZ89wLN9q9RT/UuNf17qM99l013oaaWWCcmlfkFfKKIeDrK9S32scQnAhOzZJUCxwyG7JQgadqRXSocSpCUhhQGKjCoGq+UtaDr/7McPYgMpOUzC04c/5+oq8XN53t5r1woxtPKlXrf/1H3e7tq53Su765rCx7Wr8+NmWcKqvwqoZCyJdD1AkKWX+RW7c4hOBEcGpvQHDmwihUgK1aER1qnApsBCeCE8GpvCTUDKfu12Yr881w+grObt9Lz3p2v2ffIrpuhR7j1Lwlr5BXVF7JQoh6SPtYXwRn44iQ8ayubPdWe4czfSyFur133nknanLMMceopm2fHz582M2cObPj9+666y63du1a711qV6xY4ezMq/SV1WfWAEKNU4G2f/9+N2fOHNWMceZEKJQ94W3TEPA2m5DEIeeq5iul8Hb3n7nFZ1zr5kdLYROc6SIIH75imlsyNtVu5eT3spfURrOMa56c+OLCxrEe8xtHnLUuqe362y9ucmfPW+Pib7uFGydnJlt/1zU+2u22J9foRuOwlb6bXXolbvTd+xvHnzVmOd/f2Mm92+XrK2XYc+/eve7OO++MjnvLe1kxbMf8XH755Xm/SrwViPlyKFSdoAxM/iR/GgJl8NZXCybjbU/HorBpUHeS82REhcjRWXLAO5yaCzyJzsbIdzZjmOJQ1VYDmMUGz9ufuDs+9StuzfwtLUtOI/G3a0rY2b1F/+am2jXFXuNMyOhdyO6CsykkV06JvkgEmmptCM+J9yizfzvqPfGOaJPbrf1H/xAJ08aPTorO9O+2eEWPs6y+vlKGPe0oBDta7sQTT3THHntsWxCwo+Bsp1r7k77efPNNd+aZZ+Y+KaCMcQ5THMqK1IxT53o2DdIYDT6v/Dy6KZ+l/X2Z4WycD5U5w+nbSSiHrFoxEmqciqp1ImqdCoNQ9oS3TUbDWwSnIVCnhzNl8XbPHZ9qCMf5iVnAprjb1TJb2GGjnQmB15wd7SI45zVFYHoGtSlCY8GpfruT4Ox0j5EqTsxodmkTu0bL/Xf3lzrllVhwbt261S1evFil95bPL774Yvfqq68iODNQI69UL69wLIp28zrx1lcLJvMnM5wTnPBNXqEEiqJqnYjqi21ZhZ7vE6A6FdHwVnkYM/MaoTAPEKr2cKasODRjxiOts4e9zPxNzlI611xW20VwNvaV7bikNauPtt/uIDi7fb+rCO7EMiFIC+bsMuyJ4NTRhDpBY1Snug/BOVz2RHCyaZBmdKqFb1BHoGioEZwaozolTF9fKaOgHSb/RHBObRqUXHraaTmtca31fcnGEtndH3XrJ2cvOwvO//UTW3abnD2d8N2UYMz+7W6CM/EyaSokRCK4y+zqVFMEZxI2ZjjJKzECdcqfCM7h4i2CE8GpGY3gzIVRqMK9akV0qHEqsOuUMBGcyprMcCqEfDlk/hm9ZzO5FPVz7sHJ8zQTvXZaftrLktpeZjhdh2W3bf2l3uHsZRa2w3ufrTgiOBGcyrNaPyevZONVJA7ZL/u88zc2NuaOa9Toy5cvz2fMRmvsWT17IjgRnLkduYzA49vnMM0UITibVCWRVC+RVM0/q+YrZfG2WeRNCLqVK12jfmvf1bXTbq8TS18zl9R2mWVs2fBnd4dlty2/bcikNw3q5ZgU3uHMk7iZ4dRokVfIK4aAby7jAbz2MQQnglOzJNUCh8yGLFTgqVoRHWqcipAUBhQGqjComq+UKzgndqG1VaorW3esjZjUZcYx2ms22lxod+I90FYx2LabbHqX2rYZzub3p377w5OCM7mRUdvvWquWzYjad9Zt8YqeZkn9i8sy7Mk7nCoz1Mue5E/sGSPgW1OXEYeK8BbBieDUXo/gzIVREYfkHU4NNYITwYng1H4yuaTWmrbNKrZ+v+0szcaRJh/503i32RvdC/OiAy9TGwg1f0Odw5n923bsSkIQZ5zD2VDLrbOzPZ7DaZK221WnQg/BqTlfJ3uGqhMUSuRP8qfKn1kIFeEtghPBqeJT2+e+Qb0IUX37rNsTIASnpiMJk4SpEiYznFObBmmPqmuLbktve1mS2xxznfIKglPztE72pB7CnjECo8JbBCeCU3t9qoWvcxBgNdQITo0RghPBqcQCgnMUBOfE7OoLN7rxzedPOYXNfK7/qNu9fbXLmt1UHFKRaNBxCMGpLFKvBwjUQ9qe7FKrMRp0HCrCWwQnglMzGsGZC6MiDong1FDXKcD6PpwZppl5ZdEQ9kRwjobgbEhOt+nsee6FG225rzHNZjfXu482lgTbUl11le2fp59+ulu3bp277LLL1K06BKeEqFYz1qHqBIVSiHib1WeRcSI4lTXrtYkighPBqRmN4MyFUZEAi+DUUNcpYZZd0Go0p1qE4q26hxD2RHCOiuBU7AqzGqBfD4SmTZsW3eAv/uIvultvvTVTeCI4ta2JtxqjEPEWwdmMt3b5HP8yKrxFcCI4dYRCcObCKFTgqVoRHWqcCuw6JcxRSSRVG2fVfKVfAkX5RvLzlk2D8nxxhNqWzdtYcMaQZwlPBKcmZtn21Hc4nA/4EJwIzl64j+BEcPbCk5Y2vkEdgaKhZoZTY4TgDDNrM0z+ieCkANKRpPx3/tKCM0t4Iji1RX1rk7IeCDEjlm3THTt2uJkzZ7oFCxZo46daUCdUr07oi+Dcu3fveNbQVqxY4V577TX30EMP5SLN0aNHo/bTp0/P9T1rnPV09+6773Y33HCDO3z4sDvOQ3Becskl7rrrrmu7J98nyqHGqUA7ePCgmz17tmrGOHMiFMqe8LZpCHibTUjikHNV8xV4q4PoKPL2fe97XyYw9vm1117rli5d6v7lX/7F/fZv/7bbunWrW7x4sQY00eLiiy92L7/8cu4aDN5qmEeRtxqVqRah6iF1D9QJ1asTfLVgMg5NG29cWUPzVbWhnrhX7el3qHEqh+QJUDZCvk9LQ9kT3jbtBW/rxdsy4lARX3nPe97jfu3Xfi0q7tOXb3FJ4a5Y4P/OaZ0LWtswqJfLltquXLnS3XTTTd6C89VXX3Xbt2/vpbuWNsRb4q0hULV6SBEZ3laPt75aMFn3ITgn7IpD6icq1oKXqrvjxJJalUYQnAoh4pBzRQTnSSed5F5//XUFM5+DwEAQsBVeJqo/+9nPRjOUvjOcCM5scyFQqidQfHMZD6Z1aPLFtsiECoLTY0mtPWncsGFDi0UfvmKaWzKWYeSFG7ueC1bEgL6kSTvki5vOdpe6+9z2xF7y0Zh2td+3b59VGKd2w6kWVRtnkSJ67ty50RPyNG95cqkZAW81Rr6+EqowqJqvhBpnlmXgbfV52+0dTrvzWGjakSk333yzO3DggPvYxz6G4Mwwa9XiEP5Z7F3ysbGx6LW35cuXa2dOteABQvUeICA4+yo4V7gt43e7xBHUPTlJ+YWBnV22xO3auLtFcHa7ed+gXv44ezLHZKOqjbNqRTT21Hzy5RACpRi2VfMViUr2SwAAIABJREFU7FnMnsNauHcSnGmhaWd12sWmQeE4hH+Gw7ZIncA5nNoudRLWCE4EZ4PRCM5Obu0rFooEWJbUDleA9eUQBZDmQZ18BXsWs+coCM5uQjMeO4IzHIfwz3DYFqmHEJzaLgjOFEa+qrYIUQddjDSX1PY2w2nLV+etcW7j7u3OVrD+/Offd//3sZ91zydmGJttnpxAcuFk2yS0rW2cW9g2Q9kUkm7LFueWLHHxit+4XUTUg/+PO7txM3FPzq1szNJujmZpOy2p1X2+6DadPc/dv3S3u/GFeVPLjBtLiv/18VXu/2r8Lu9wdg8ig+at3YmvKArlnyrE1inA+mJLAaRYkM1bZjiLLWWDt5p//YhDyRnOeOlsPKOZvgMEp7YJvNUY9YO3upepFkXqBASnRrpO9vTVgsl6iE2DYnHWo+B0rinK1szf4sY3n+++/+Vp7rPP3eZ2P3mVa+hPlxakzb/PnxSCBn7c5lu7fuT+1/+YZf8QCceGMk0si20KThOaK7eMu0ZXLe0e+Pxsd8opp9jdd1xSmxacTVG90GX3OTG2hoKd7HPi98cuf8gdues8BGdGDEFwDleApQAqx54ITgSnZp7/w7Z+PRAywamEZjwOBKe2KPFWY1QngYLgHC57Ijj7uqS2OzmmxNdEm4evcNOW7HIbtyx1/2fJ/3G/969PuKs+MmNS/I2tbIrR5pUShAlx+aMr3u9mzWoIzkkRmhSmE4Kz5bdisTrf/e+969z/7FVwZvY5NVs7KaZd62ZDkVh99jb3r0981X1kho0z30UiKbbzJpsG+ReXRZ7Qwlvt5yEKIAQnglMzzz8m9Etw7tmzx3Wb0UzfP4JTW5R4qzEKEW+zeiV/apuMCm8RnH0VnL0tqY3pN7mzbXLmb0LYzY9nJDtxNRarjSW5V7z/vycFZzzLOfXdeEntxOzmVMeR2L1l+wPuxoU9znD23Gfr7G3LWBGcMvIwwykh4hxOAZFv8hqmwgDBieDUkaR8wdnLPcZtEJwaLd/Y168HCPoOp1oMU7xFcBJve+E+grNEwdl4SbIh/Mbc5Q8dcY2Vps2lpj0IzvR7lGlDp5eyNtbiNpfTtgjOMfeF/73Xffd/Iji7OYpv8gqVSKpWRIcapwpcPKHNRqhqvC3DnlXzFQpaxQJ/8TcqcQjBGY5D+Gc4bEfFPxmn5hCCszTBOfWuo3OXu4eO3OV+t0fB2RSqjeW46RnONnsPYIZzQjRPiVxmOEMFnqoV0aHGqcIWghPBaQjUaTUABa3yagSnQgjBqRDy5xD+GQ5b6oRw2NaNtwjOkgTn1EZAn3MPNDb2ee62f3VPXvWRBn86vXeZEnFd3qdMClHb/bbbZkBx30Hf4ZzYEGlqUpV3OHXYqVcRTSLRFvWdbaxbIqnaOKv2cKYse/rsCK5ZPTwtqsbbLGQRnJp3dbIn+VPbc9WqVdHKv02bNunGqRY8mK7eg2kEZymCs3Xm8eff/7JrnIrSWPn6l9FxJOldatuF5MSRJckdYzsK1XiX2sSxKhMzknY0Sr92qX2yZVMiZjhDJZKqFdGhxqkyC4mkeomkaoVe1XwFwam8upzPq8ZbBCfvwvXiCXXibZE6gV1qNRvqVA/1RXAeOnRoPAuWZcuWuX379rlt27Zp9BItihD18OHDbubMmR37u+uuu9zatWudtTnOQ3CuWLHCrVu3ruW3f7DqBPe572QN75ON40S2uVWNgyijts9/y+3a1jyX8uc//3/dX/zOAnft/3jQHbpjcfQjL91xrpv/tR0TPzj13WQPrW0an6yY+n6z3Q/cqhM+555v3K/7zndc/GsrHjzkrJv9+/e7OXPmpPpb4R48dIezu0jfZ/t9OffJb+1y22xQk9dL7o5z57uv/VrrvUS/9dwfu2d++Afulz12qc2ypyJVcpyqbfJz3z7rxFsbb9XGqWw0LPZknE0EQtgzRIwv4iuhxpnFIYtD73rXuxTNqvd546HoFW7zxL4DXV4L8bxrK9T7EePLsOfOnTvdwoUL3datW93ixc06odfr4osvdq+88kruGqyMcYbKnwqrEHFI+ad97rMKwTdn182en/70p9306dMjzue9sGc2Yr4cKuKfvlowyVvO4Zywq+9TpyIGzO6z8/maMQ3r9GTEF1sb67CMs2qzNuF4mx0oh8WeKoEyzmyEeIczGx/zT59iVvEy7Of9FZjqXuuUV1hSq6zJO5waoXrVQ8xwaovWqU7oywzneOPKgsW3k1AF7egU7ghOBGfTMzmH078YCRWHVCqpUyKpWuFetRhfVhxCcPo/tKiafyI4lUX8Y3xZ/mn9+vho1eJtlmWK5E/e4dScr1Od4KsFk/7JDCcznNorGi2KBJ5RCbB1mrXBnpr28FZjFCJhIjib8TYuZtNHadk7/NubO8tN7Bkwv7GHwOZoD4HszeaenDJoy7v7zX/O6qd55Nf9bumWpe7+JWtc/EuT9zKxGd5kDws3ut3bP+L+tLGpXsvRXhP7EMQ3khxLfO9uyxbnlixxYxONpnZRb+VjnfwTwaljSZ3sSf7EnjECo8JbBKfHO5wrV650GzZsaPMWX9IQeAg8vQSeqhXR8Bbe9sJbhRKCMxuhInnFBGfbJnSJXc6borO50dv9S5siNGp//9KG2FvtmpK0w0Z2E5vU7WoTri46rqv5syYw19g/NMVtQlBOCsC2Y7XSS2pTf+/SfmxS/LZvlNc2/gTcvtjaT4TgbRYTEJwqkjDDqREaPG+pE7RV6hSHitgTwYng1N6QauHrHEWI6ttnGYVBqHEiOJtE9C30chN9xL4QircKRl971mk1QBHe+sa+5gznI+6KxgxhUhhG9oiEm00cTsxqTv79c+7BaevdR2PR2Gzc+TdaDNulTbKfNqGbELOTAjdLcLYK48nuE+dSr/5wh/uY6Hf+lvGJjYimbtwX2zLsieBUkQTBqRHyz5++vjJMeSULX8ap2YfgRHBqliA4c2EUKvAgOBGcuYiYs3Eo3qrbQHBmI1Sk0JvxyFcawnLX1Kxj3FUHEfbwFY2zkm0NanqpbIZg6yz6EuNJfndec8azTfh1EIxTS2gTArTb91vur9OmQ903IvLFFsGpvNpf/A1THEKg8CqV9hR/XykjDhXxTwQngrMXf2hp45ukixDVt8+6OWSdZm3qZs/cRB+xL9TNnnXylbLiUFNwxm8ythO65d3GtuWqE+3jdy9bZj1Tv5V6rzLdU9RPJBgb73Cmf6eo4JyYgW2KVARnp7Blx6K8+uqrbvv27bmjWogHQggxhFgvRGSXWo1SnfwTwYng1IxmhjMXRqEKd2Y4R2CGM+AZhIrEoXir+g2RMKvmK+UKzg4znG1GaS5XfWH+SjfW0KdTGwg1GhaZ4Uz20024FhWczHAqF3MITgmR96savg/DhynehnqAgOAcLt4iOBGcmtEIzlwYhUokVSuiQ41Tge0rUNTvlv/5YM8gTI+3bvZkhjObscl3OFt2ee3wtamNgn7XfT+xgVCzae/vcGb20+Udzmgp7y7bkdY2KerPO5yt98GSWgSnju6+eQXBqeOQtfA5/gXBOVy8RXAiODWjEZy5MApVuCM4h32GE8GZx9EQnLrQ67hLrUnI6H3NhRPvdnbaCbZ1lrN9p9fmjOia+Vvc+ObmYSqddoNt6cc13+F80sX9RjcSLfmdWtqbFrd+u9QiOFu5geDUkQXBmY1RGcIawTlcvEVwIjg1oxGcuTBCcGq4fJOX/XLewqAfZxBOFdTdzyGs2xmEaSuF4q1iQ157xr+H4OxNcHbkrls5uWy2dYYxat0mJnvhv+pncmnuxo1u15qpczjTZ2RObl5U6BzO5I60zHAiOFUUyp9XeolDWb0OU7wNNc4dO3a4mTNnugULFmgDplqEyCuhxjnIeqhM3iI4EZy5HdnXOQiwGuo6FdF1sGc/ziCcKqQTZwymlhnKfip4BiGCs7M/zp071/X7rGWfByX9KAx8lrHpKOXZopd3QT1/2vdrvrmsDHtyLIq2cp3sWYf8mUTcF1vGCW9jBBCcCE7tDakWBB49s2AtfIo9BKemY+9PLns4G9C6yzyDMGogziHsoZ8KnkGI4Oyf4Hz00UfdunXr3DnnnONuvvnmjj/cO29bv14k3vrEIO2Bni0QnBFwvvZEcGre+WJbxgMEhBj2jBEYFd72RXAeOXJkPIs6F110kdu3b5974oknNMMSLUI55J133ulWr17tDh8+7I7zEJyXX365u/XWW9vG8tZbb7njjz8+1xitcahxqhsxm5x88smqGePMiVAoe8LbpiF65W1fziC0DlWh3LLLZoIsFTuD8M5P/zyTyaF4q9ynV3umfycr3obylXRh8Nhjj7n169c7++9pp53mbrvtNnfBBRd0HHKIcWZha/b0yUfKXt6fKz/y/uHevxhzvB+F3qDtaYLz13/9193WrVvd4sWLex90o6Utqf3pT3+auwbLE2/z+KfirX3u87CkSOE+aHsOU7zFntTxvQQkXy2YjEPTEJxNqBGc2ZQjwGqXzEqYoYroYeVtX84gnBScHc4PjM1ZkzMIEZza/6yFLant9lAx9s+00LzpppvcpZdemtlBGQVtpQRnb/AHbYXgzPfQH8Gp6Tis+bMKDxDsHU6LYWeccYY2RKpFGfGWByXZZuqL4BxvXFnd+E6jhhIo7PbZtFYZS7zKcMhhGSe8zcnbbjOPbcEq4wzCScG5xs2PDpbvEOl66aeCZxCmRxIq3qpKIYR/hvIVm1364z/+Y2dLaG1G05bPLl++XA2xtHjrM0vU02CGpFGRGbEQvM2ClSW1mnR1sucwxdssyxQZJ7vUas4POg4VsaevFkzqlWkIziYpfINdEQP69ong1I7si20oe4Yqoqs2TmWZ3gNsb8eMZJ9BaHfT2zucdTuDEMHZmWmdNg2K39H0EZpxL73ztvW+htc/GaeKdcnPEZwaLV9foR4Kh22RegjBqe1Sp7yC4PR4h7PfOxgWccgiAVZTebRb+GIbyp4IziYf8wRYeTbgh/UZhNanOodQ9lPBMwgRnFpwpoXm17/+9WgHW58rD2+Tv1+1OKTGzjizEfK1J4JTMc//oX/evIJ/alvELYrUQwhOjXOd4i2CE8GpGT2iLXwLgyIBll1qNdnyBtj0+ZjO4wzCKdHZ+zmcyX6qeAYhgrO74DzvvPOiTVaSM5rW+q//+q/d9OnTJ7+4bdu2lh+xzeh27tw5+W/27tGmTZtaHpSce+65Ld/Z2DiXMnnOnAmLNY1zKuPr6NGj0aZEyeuee+5x9957b8d+4n9ctGhR9L/Tpk2L/nvZZZe1LP9N92Nt4nuJ41Av/aTHbEXFlVde2XK/aszWjy+2yXir+ukXttbP22+/Pbnp4CCwPXjwoPvnf/5n702DXn31Vbd9+3YdYFMt8sbb+OtVy59q4IwzG6Ey7IngVKzN9wA++Wtl2BPBieDUjB7RFmU4ZJUE54EDB9ztt98evbBvgSJ9hRLWim6+hYH63aCfV2CHTjW+utkzpK+cddZZ7rnnnnMvv/yyM+H2jW98w+3Zs8d95zvfaRGcJkiTl4kvEzXxZUIyLThjIRi3sc/TgtN+J75McD7++OMt/ZhAsz+d+on/zY5osSsWnPauafJ9U7vPZD/WNr6XpOBU/aTHfOGFF7YJTjVm68MX2yRvVT/pMftia/0kBecgsDXB+fTTTyM4MwKZb862n/TNK759DlO8zcotjFNl3tGZmUdwIji1N5TVorEZyxVuc2Kjlt7eyevX7VYtkQxqSW0sNK34tP+3YrvT2YJ1SyT94oXX7yA4u8IWotDrl6+YEDLux8Lz2muvdZ/5zGe8KBBinBR65R1HMGh7sqRWu51vzkZwhsO2bnWCL4cYp+YQghPBqVlSSovBistOQ6xa4OlXEZ0eazzOtNC0ZWJWbJ9++ukdGVC3AFsKjeNOEZy1FJzxTaeFpz2ESc+mKX4NWqDUzT+rFm+rZk8Ep7LI6MwU+foKwjoch4i3GlsEJ4JTs6SUFgjONOyhBKcVwps3b46W05noVEIzvq+6BdhSaFyjTutmz5BLarttDDc2NuY2bNjQstS2V+GJ4Mx2Bt8ieph4m4UQglMHU18OIcTCYTsq/sk4NYcQnCMoONObqCzcuNttX/3hiZ045zdOd9jsmscNdj8Oom0jlpVb3HjqkMJu/UQ/HZ9LuGWpu3/JGhdvxRLdy+9+3509b+rf3MKNbvf21e7DE/czefxEdP7h2CTL43E0/yEWrFucW7LExa1WdjtLsYOv+CavUIGn34IzntG0jUJef/31noVmXQVn1eypwjMCxV+g9NtX4jtJvtuYXGrby4wn9vS3Z9Y3Q8XbqvknglNZhBlOjVC93lW1B3zHNWr0Xs86To6feFu9eIvgHDHB2XZ8w8RSPxeJzsamEWfPc/cvTQjQ+5dOiL0p8rYfAdEuTLP7+fCE4GyKykkROCEgm3/vNMOZ+LfG250mNqcEZPOzsUnhO/F3t7AxtO2uoac7HG1RPYccxKxNeunsF77wBbd+/fquS2e7oTQqhR7j1GWMr5gPNbMQWnDGiORZaksBVK94q1g/aHsiOJVFEJwaoXoJTnap1RYddBwqUg8hOEdKcHaZsYyEnmvObE7+/+fcg9PWu49OiLUp2nef9ZRtkv20CN2GGpy4IqEaidyPuD9t3lSHTYN2u4+unxLGk1+Ofn/XhMDscJ8536PzLaKLOGRIwXnppZe6d7/73ZNLZ21nzGuuucZdcMEFbtasWZMwrlu3riXK2RLb5HuctlunHclgOzzaZcdE2AxP8rJC3DZaia/TTjut5SmljfNb3/pWy3dsV83k8sS4n2Qj6ycZYG2X0OSREel+7LvxvRw5csQde+yxrpd+kmM2e1ofP/7xj1vuV43Z+vnkJz/pha11ZLtSzp49e2DYXn/99dH4ZsyYEf13ENhaPw888IDbtWtXX7HdsWOHe/jhh93hw4cnj67QqbvZYu7cudFZm7Z0Nn11889YeNqT+E4bbNnv1Kkw8I19jFOzzBdbBGc4bOFtOGyL1EMITm2XOuUVBOcoCc4WQZYgckqIPXzFNBetVO2wTHbyPMGspam99DNvU7Rsdn76dya/e6N7YV4XwflXG92uyzt8t2UcYoa0uWY48/ItDIoE2JCC80Mf+pB76qmn2gp7E51JwRkfoxA3tLMGk0LQhEj6vLvx8fGW37X2SSFo4it5hISN84QTTmi7l2Sx3q2fZIC19kmBnO7HOkjfS3rX3U79JMds9rzllluiWeDkpcZs/dQJWxPkdsWCcxDYWn9XX321u+222/qOrf3goARnfPO2euCkk07qGFfqVBj4xj4Kd5VV/GfhEJzhsIW34bAtUg8hOLVd6pRXEJwjJzin3nlMU7nz0tZUq/jdy7aZz0S71LuVHfuJBOf9bmn6d4oIzpZ3PBGcSdzjWRubuTEhYTOUVhjbGXpXXHGFO+WUU3RkS7UokkgoaDXcdUokVbPnoJbUaitOtcCe2Wj5cmhU4hCCU3ubL4cQnOGwLeKfq1atih6AxmcZ67sk3vaKka+vFLFnXwTnoUOHWqc3UiNetmyZ27dvn7NZgzzXO++8EzU/5phj8nwtamtPtmfOnNnxe3fddZdbu3at99PvFStWtMyqxJ1k9Zk1gFDjTPc569HViSWn3e7oxeg9zhfmr3SN97UTGwhNtO9lWWq3Gc5kl92EaxHBmXOG0xwu66qaPfvJW1vu+s1vftP9zd/8TbTM1gK7/bH/7/UaFG/T97N//343Z86cXm9zsl3V7KkGwDizEapTjLeRYE9/e1Yhf5Ydh5599ll31llnuc9//vPugx/8oAofLZ/bsnV7wJi3BoO3GmbySjZG1AnhOFQ3//TVgslxTmssLcsUnL6qtoiSDrk0Me/7PYpuocbZ3q8+amTqHcrfdd9PbCA09Vu9v8PZ+v5l6m66vMMZLefdZbvS9ucdzs7vgCbfC+1unTKeAA2at/ae5I033hgJz3jG88orr+y6LDCJ1uB422ojZoqyI0rVeKviXwh7MsPpHP6pmOe/vNV+OQRvs+74ueeey332a/x7VqLZ++RbtjR2bc95DXqc8FYbyDfGl8Fb7Ik9YwR8tWCStwjOCTR9g8AgHbJ9h9nGASLRO5u2m2vqvcnkJj8Jn2n/jeas6Jr5U0ejZPfT2DXWNd/hfDKxi2zjRhI7z3YStvl3qUVwNg2nNkL5j//4j7altkp4DpK3yZBNAYTgNAQG/XBG9anKCngLb4twiHirPKxeDxCwJ/aMEfDVDnV7gIDgHNA7nLYxie30mdztMybboANP2xmabmW0dLZxrsjE7KKdeWlXu5CM79nnHM7GLkRTS3Tj5a+NMyB3rZk6czN5Tubk5kWFzuHstMstM5zJUJ8MdjbjmX7Hs5vwHDRv43umcKdwV4U7M5zMcOpyFoHSC0bEW+KtirdZCFEnaC9DcGqM4jjEDOcEVp1IY0LTdtG0/1rh3unl57IcUps4YIte3gUN2H0vP+0bBELZc5BFdFJ42hEhduxD+go1TmUbCiAKIFUADdJXFF95UNIbQlWLt+quqxaHbHfx9A7c8Rh8sbXvV22cWXZhnIq19bInu9QOlz2Z4Qw0w5kUmnY2oM0a2Rltna6yCndN5YAtEJwdwa3aMkETnnZVYWaewr03f/QtusqKQyEKWgQnM5y9eIuvr1RRiCE4mbHuhfMh4m1Wv0XyCoJTW7RO9kRw9llw2oHj8YymEpoxlYo4ZJGEqakcsAWCsxaCM1QiKcLbOgVYxqljSAh7IjgRnJp5wyVQEJzDZU9mcp1DcOooFiJ/hqr7EJx9Epw2o2nLWR5//HHXq9AcacGp/aj0Fr5iIdQDhKoV0aHGqQxfpwDry6EqzqDUqQCqmq9gT+XV/mKBONTEFsHpzyH8s5r+ieDUdqlTPYTgLCg4k0tnf+mXfima3ey2dLYbdUiY2qko3J2rWhENb+FtjEDV/LNqvkJBG85XiENNbO21nUWLFnU8OqVq/hlqBoVxaj+rk0AZaxwGf1yjRs9bUxNvNQ98faVIvEVwegrOxYsXty2dtUNNZ82apS2dalHEgL6kwSG1mXyxDWXPqhXRocapLFOnhOnLIfxTsYBjURRC+KdCiBkxjVC9Npkh3mqLkj+zMfLlEPFWcw/BmVNwzpkzx9mf3bt3R+gmd4Uzop5wwgktqKd3jbMZ0XPPPbelzZEjR6K/z5gxY/JJpc2Uxtc555wT7XKbvOxJ5mOPPTb5T730s23btpann1dffbW77bbbWn7XDohW/VxzzTUtwtqW8iSvdD+dxqz6SY/ZF1vrJxlg7SlwaGwt8Nxyyy1u/fr1fcfWfvDw4cPRU788lzqHkwcl3dEkkWim+SZp++UQBVDVHs6EGmeWZeBt/XiLPXn3WLOWByW9YBQir+CfxfwTwelRuF966aXuxBNPjI44ef3116PpfhN8733ve51tGpS80mdvHjhwwD3zzDMtbX7zN38z+nssOG1n0Hh3UPv3k046yS1YsKDlO/Yb9lsmPmbOnNl2xmenfuw37Lfi66mnnnL/9V//1SYwk/8Q9xP/m43HxpkUKGkxnO4nvpd33nkn+pljjjmmbdlPup/0mK2g9cHWhHky8AwCWyv0Xn75Zffv//7vfcX2gQceiJbVIjj/P3fKKaf0knNa2viKIgp3DbUvtqGEGIKzWGFQNXtS6GFPHYUQYr1ghBDLRsk39lEnaPYhOD0E58qVK92GDRsiwWeiMxaeX/ziF6OZrU5HSJAwSZjaHeu1TJAAqy3qm7xCCbFRiUMITuKt9s7hEii24sk2LOxUfxCHNBsQYtUTYjbJYBMq6QkXbc0wK2dGJX+GGieCs4DgjI0SC8+NGze6N954Y3LGs1fhSeGuwwcJk02DYpZQGFSvMKiafyI4EZw6qwyX4GSX2uGyZxZ/qxZvQwkUdqnVUaxO9RCCsw+CM1kIf/vb325baquEJ4JTO9WoBNiscVatiIa38DZGoGr+GfvKm2++mft951NPPdXFq1jSFq7aOEMVeoxT+3bVCj0EJ4JTs7ZeM38ITm3RqsWhrDvui+Dcu3dv604zqR5XrFjhXnvtNffQQw9p9BItjh49Gv1t+vTpub5nja0Yjt+JTH/57rvvdjfccIP3u3CXXHKJu+6669ruKe7TZjltO+e//Mu/jGY8bffatWvXug984AMdxxFqnAq0gwcPutmzZ6tmXceZ94uMUyNWJm/13bW2wJ4asSx7qm/jn9kI9eIrCuNun3/1q1/NjPE+v4s9/e2Z9U3iUBOd973vfVGdYZsBpi/ikPZY/LN6/nnhhRdG58va/hV5L+xZPXv6akEbSWzPaY2dQDMFp6+qDTWDMqiZovQ7nrbkdvXq1R2Tgf1jN4GcRRueROswVKcnQMxwjo491UiHhbdljHPXrl0tu3gn7+EnP/mJu+OOO5yJynnz5nW8vU984hPurLPOavuMeKusWa8ZlGGyJzOczHBq76yXfzLDqS1apzrBVwsaCvE4EZwTnOiWvGLh2e1Q5lDCWlG1TkQdpsLA9wHCoB6UKN7En8NbjRS81RgNOg797Gc/czt37nRnnnlmy67d+k4paHvBaND2JA41rWK7xad3xY/tRRzSzIW32Rj5cqiIf7Jp0HDxFsHZx3c4y3BI3z6TTww0pVtb+PZZJPD49jlM40RwNnlIYVC9wgD/1FEU3sJbQ8DXV8if2sd8sSWvhMMW3obDtm68RXAiOLU3pFr4BnUCj4aaJbUaIwp3CncKd+0nxFuNkW8uq1uhxzg1F8gr5BXyivaTInkFwYng1AxDcObCqIhDIjg11BQGFAYUBtpPQsUh1TP+iX/in8pLOLZII+S/GoAHQhpd34dQRfIKghPBqZmJ4MyFURGHRHBqqCloKWiLFLQvvfSSu++++9yXvvSl6J23PJdvkqYA0ij7Yhsq3qo7rlocWrdunTvnnHOc7RWAbEc/AAAbBUlEQVSRvnyxhbeKBf6iCN5qbO20h+MaNfry5ct141SLqvln1gBGxT8RnAjO3I7s6xwEWA01glNjRCJBcBYRnD/60Y/c7/zO77ht27Z1LM4pDPyLaASKjl+h8ie71MJbzb567YHALrXaonWqhxCcCE7NaGY4c2EUSlizaVDTDHUKsL7FJePULueLLYIzHLbwNhy2Kq8gOBGcmn31yp8ITm3ROtVDCE4Ep2Y0gjMXRqow8J1BQXAiOHshoq8QC8Vbdc+DTpgITmURCneNUPUKdwQnvK0jb7PuGcGpLTro/FmkTkBwIjg1oxGcuTAq4pAsqdVQ1ynA+oo/Zoo0D3yxffrpp91VV13lbr/9drdgwQLdUaKFb5/YU8Psi22oeKvuuGpxyN7dtHfdOr3v5ostvFUs8Be58FZju2rVKjdjxgy3adMm3TjVomr+6TvRoAZep3EiOBGcis9tn/smLwKshhrBqTGqU4D19RUKPc0DX2yJQ+GwhbfhsIW34bCFt+GwhbfhsK0bbxGcCE7tDcxw5sIoVIBlSW3TDAjObDoixLLxCeWfKkjAW3hrCOCf+KchQBxSEdPfV6gTwmFbhLcITgSnZiaCMxdGRRySGU4NNYU7hTuFu/aTUHFI9Yx/4p/4p/ISBKdGCMHZC0Z1ird9EZyHDh0azwJm2bJlbt++fdE29HmuIgnz8OHDbubMmR27u+uuu9zatWudtbEzfvJcc+fOdStWrHB25lX6yuozq49Q41Tj2r9/v5szZ45qxjhzIhTKnjFvv/a1r7ljjjkm113ZOxD2PgS87RwT8M9iBZBv7DPciUPZruyLbag4pAIP9sSehgC8zeYB/qkiiT+HyCvhsC3CW18tmLTntPHGlTU8X1VbZGDMFGnC1enJiO8yJENhWMb5V3/1V+7aa6/taNh33nlncqlWNzG6Zs0ad/3117d93xfbUP6pmDss9mScTQQGbU/bNMgeONpDGDYN6sxC35hQhj2JQ00bnnvuue6yyy5j06BZs1Ro7fj5oOMQvNVmYtMgjVGdeOurBZN5BcE5wQnfJE3g0U7li+2oFECPPvpoVHAM8jB7eAtvYwTq5J8ciwJv68hbFW85FoUlmNqzB/+AT/E26545FkVbFMGZwshX1RYhKjOcw0XUOhW0oXibZVEEp+a7L4fKsOeoPCgpY5wIznC+UoY98c+mPRGcCE7t2QhOhRF1QjZCReKtrxZkhnPDhjarQNRwRPXFdlQKIASnSiP+xUiRAAtvtV0G/YQWwaltAm81RoPmrYpDCE7/GD8qdULdxskMZ/3iUNYdIzg9Ng1auXKl24Dg1J6QaqESZtYPUgBlw71nzx53xx13RBsDnX766bls44st9tQw+2Jbt8KgTuN86aWX3L333htt/jYoX8Ge4XyFONTE9uabb3aLFi2K/qSvOvkn9gznK3WLQ2NjY9HGnsuXL9egpFpU7YEQ9a1zCE4EZ25H9k1eJBINtS+2dUskjFNzgYSZjZEvh4hDmnu+2BKHwmELb8NhC2/DYQtvw2FbN94iOBGc2htSLXyLEQKPhtoX27oFHsapuYDgRHAaAr6+QrzVPuaLLfE2HLbwNhy28DYctvBWY4vgRHBqliA4c2FE4NFwUehpjBCcCE4Ep/YT4q3GiHirMSLeEm+Jt9pPisRbBCeCUzMMwZkLoyIOSWGgoaYwoDCgMNB+QhzSGBFvNUbEW+It8Vb7CfFWY4TgRHBqliA4c2FURuBhl1ptIt/isgx72mgo9MIUeuxSG85X4G04bFUcYpda/+Xn8LY83mb1zC612i51qhMQnAhOzWgEZy6MVGGQ9WO+ogjBqU3ki20Z9qQACmdPBGc4bOFtOGxVHEJwIjg1++r1IBPBqS2K4Exh5KtqVYD1Ldz//M//3H31q191hw8fjrZcznPNnTvXcSzKf7tZs2blgS1qG8qe6kbq5JC+ogjBqVjgX4zA23DYliFQEJzDZU/8s2lPBKd/jC8jDsFbHYcQnBqjOtW3vlow6Z/TxhtXFiy+nYRySARn01p1IqqvEBuVcSI4dWD25VCoOKTuGP/MRsjXnghOxTwKd41Q9fInghPe1pG3WfeM4NQWrVOd4KsFWwTnkSNHMgXnRRdd5Pbt2+eeeOIJjV6iRahC784773SrV692b775Zu4ZzlNPPdVdfvnl7tZbb20by1tvveWOP/74XGO0xqHGqW7EbHLyySerZowzJ0Jl2PPAgQPusccec+ecc4476aSTct0xvM2Gqwx72h3hn9l28eXt/v373c6dO93HP/7x3L7iK3Kxpw5JvvbEP5vYWvw//fTT3WmnndYGNrzV/CPehom3Rfxzx44dUU19xhlnaAOmWmDP6tnTVwsm8+e0ugrO3Aye+MI111yD4ERYd6VPkQBLYaC9kkRSvUQCb+FtjAD+iX8aAjxA4EGmIUA9pHPDqOTPvgjOui2p3bVrV/Q0sNv1xhtvuBNPPLHr55/4xCfcWWed1beniGU5ZJ2m4os4JOPMDni+2MLbsIkE3sJbQwD/rGbhjn/in/inzoHUCRoj3xhvv1ynONSXJbV1E5zK/HUy4KgQlXEq1tYr8GBP7BkjQLylcKdw1/GAwl1jRF7RGBFvibdlxVsEZ4p7e/bscfaO51e+8pXofYg8l2+wI5FolH2xrdsTIN9xwttwHMI/w2Fbhn++9NJL7r777nNf+tKXBhbjyxgnvB0u3ip7rlu3LnqHf9GiRW0D980r8DYch5Q9s3oeFXuOjY1F+6wsX75cGyLVAmFdPWGN4EzZhN0+tV/7BjsCbDhs4W04bOFtOGzLKGjZpXa47Il/Nu3JLrX+y8/LiEPwVschdqnVGNVJWCM4EZya0akWCM5syMpIJAhOTWN4Wz3ellHoITjD+UoZ9iwj3lZxnAhOBKf27Hq9eoPg1BZFcKYw8lW1ZSQSCndNcAr36hXu8Bbexgjgn9lcQHCG85UqCrGs0fr6ShXHieBEcGrPRnAqjHxjQhl6pYpxKAtfXy2YHOe0Ydo0iMJduaN/UMchw2ELb8NhC2/DYVtGwkRwDpc98c+mPRGc/rVJGXEI3uo4xAynxogZzhrPcBJ4NMF5AlS9GU54C2+Z4dQcsBYUehon3xhPHAqHLbwNhy28DYctvA2Hbd14ywxnBy7U6YkBhYF2ZuyZjZEvh0gkmnu+2NYtkTBOzQXiEHHIEPD1FeKt9jFfbIm34bCFt+GwrRtvEZwITu0NqRa+QZ3Ao6H2xbZugYdxai4gUBAoCBTtJ+QVjRHxVmNEvCXeEm+1nxSJtwhOBKdmGIIzF0ZFHJLCQENNYUBhQGGg/YQ4pDEi3mqMiLfEW+Kt9hPircYIwZnC6JlnnnFf+cpX3J133ukWLFigEUy08E1eEFXD7IvtqMz8wdtwHMI/w2Fbhn8+/fTTbu3atW7Tpk0Di/FljBPeDhdvlT0XLVrkli9fHv1JX+RPzQWEdfWE9apVq9yMGTOiWJ33wp7VsyeCM2UTdvvUbu2bvFTCzOrZt89RKfTgLbyNEfD1lVHxT3apDecroxJvqzhOdqn1fz+2ivakHnKOXWp1rK6TsO6L4Dx06NB4FizLli1z+/btc9u2bdPoJVq888470d+OOeaYXN+zxocPH3YzZ87M/b3HH3/cnXfeee7v/u7vIrLnuXz7LGOcNq79+/e7OXPm5Bli1JZxZkNWhj3hraYxvK0eb8uIQ/ZwZsmSJQON8WWMs4w4xDjLi0MnnHCCu/7666M/6cs39mHP8uyZ1fOo2PPTn/60mz59utu6das2RKoF9W02ZL4cKpJXfLVgMg5xDueEXZlZyCb4qMyglDFOZjh1PsI/8U9DgBnOcL5iv1ynJ+6+MaGK42SGkxlO7dn18k9mOLVF6xRv+zLDOd64smDx7aSMwt3ehfuDP/gD9xd/8RcDe7+njHFWMWFmcWiYCoMQ44S3OjD7cgj/DIdtGXHI3uG86qqr3O233z6wGF/GOOHtcPFW2ZN3OBGcmvH1Epy8w6ktiuBMYVQnwUlhoAlO4c5MkSGgCqAQwhr/xD9jBIhDxCHikI4H1sLXV4i3Gl9fbMmf4bCFt+GwLcJbXy2YtOdQLamFqNUkqm9Qx57YE4GiOUDh3htGxCGNU52euGNP7BkjAG+zueDrK0UEim+f1H3ar32xLWJPBGcHuxB4CDxFngoXcUjfIECArWaAxZ7aLsRb4i3xVvsJeUVjRLzVGBFvibdlxVsEJ4JTR6hUC9+gTsLUUPtii+AMhy28DYctvA2HLbwNhy28DYctvA2HLbwNhy281dgiOFMYsdunJo2vKMIhw2ELb8NhC2/DYVtGAcQutcNlT/yzaU92qeVdVe3Z9do0iF1qtUXrNGON4ERwakYzw5kLozIKIASnNhEPSrIxKoO3CE54GyOAfxbzTwQnglNHEwSnwog4VCwOZX0bwYngVP7X9jkOGc4hfbFFcGoa+2I7KkJsVMbJDGc4XynjAcKo8FaNE8GJ4NSejeBUGFEnhKtvEZwITuV/CM6cCKnCIOvnfIMdglMbyRfbMuxJ4R7OngjOcNjC23DYqjiE4ERwavYhOBVG1AkITsWRvomiAwcOuL//+793v/Vbv+VOOumkXP1C1HBE9cV2VAogeKtd1ZdDqtAL8QBhVHhbxjh/9rOfuZ07d7ozzzxzYDG+jHHC23AxoYr2tIeOp59+evQnffnGviqOk3g7OsJ6x44dbubMmW7BggXamVMt6vRu46j4JzOcHWgMUbN929c5KIB0zPTFlsIgHLbwNhy28DYctvA2HLbwNhy28DYctvA2HLbwVmOL4ERwapakWviKIhxSQ+2LLYkkHLbwNhy28DYctvA2HLbwNhy28DYctvA2HLbwVmOL4ERwapYgOHNhRODRcCGsNUastMjGyJdD+Kfmni+2FLThsIW34bCFt+GwhbfhsK0bb/siOPfu3TueBemKFSvca6+95h566CGNfKLF0aNHo79Nnz491/essZF8xowZub9nXzh48KCbPXt27u/69sk4NdS+2GLPcNjC23DYwttw2MLbcNjC23DYwttw2MLbcNjC23DY1o23vlowOc5p440rC1JfVcuTEU1UnkRrjJgpysbIl0P4p+aeL7b2y/AW3hoCvhzCP/HPGAFfDhGHwnEI/wyHLbwNh20R3vpqwaQ9EZwTtvUN6kUM6NsnDllNh8Se2i4IMYQYQkz7CXlFY0S81RgRb4m3xFvtJ8RbjRGCswNGBFgCLAFWBw8CrMaIglZjRLwl3hJvtZ8QbzVGxFuNEfGWeFtWvEVwIjh1hEq18A3qJEwNtS+2zFiHwxbehsMW3obDFt6GwxbehsMW3obDFt6GwxbeamwRnAhOzRIEZy6MCDwaLoS1xogn0TyJLutJNP6Jf8YIEIeIQ8QhHQ+o+zRGCE4Ep2YJgjMXRgQeDRcFrcaIQo9Cj0JP+wnxVmNEvNUYEW+Jt8Rb7SdF4i2CE8GpGYbgzIVREYekMNBQUxhQGFAYaD8hDmmMiLcaI+It8ZZ4q/2EeKsxQnAiODVLEJy5MCLwaLgo9DRGFHoUehR62k+Itxoj4q3GiHhLvCXeaj8pEm8RnAhOzTAEZy6MijgkhYGGmsKAwoDCQPsJcUhjRLzVGBFvibfEW+0nxFuNEYITwalZguDMhRGBR8NFoacxotCj0KPQ035CvNUYEW81RsRb4i3xVvtJkXiL4ERwaoYhOHNhVMQhKQw01BQGFAYUBtpPiEMaI+Ktxoh4S7wl3mo/Id5qjBCcCE7NEgRnLowIPBouCj2NEYUehR6FnvYT4q3GiHirMSLeEm+Jt9pPisRbBCeCUzMMwZkLoyIOSWGgoaYwoDCgMNB+QhzSGBFvNUbEW+It8Vb7CfFWY9QXwXno0KHxrK6WLVvm9u3b57Zt26bvKNGiiAEPHz7sZs6cmau/uPH+/fvdnDlzcn/Xt0/GqaH2xdZ+GXtm4+uLLbyFtzECvhzCP8NxCP8Mhy28DYctvA2HLbwNhy281dj6asEkb6eNN66srnxVbRED8uRSG58nlzy55Mml9hPikMaIeKsxIt4Sb4m32k+Itxoj4q3GiHhbvXjrqwVtJLE9EZwTdvUNAgRYHTx8sU0SVffS2sK3T+ypkfbFFnuGwxbehsMW3obDFt6GwxbehsMW3obDFt6Gw7YIbxGcHezCk5HqPRlBoOgAAm/hLTMo2k+KJEzikMaXOEQcIg5pPyEOaYyItxqjOsVbBCeCUzM61cI3CBBgNdS+2PJELxy28DYctvA2HLbwNhy28DYctvA2HLbwNhy28FZji+BEcGqWIDhzYUTg0XAhrDVGdXpyiT2xZ4wAvGWGkxlOHQ+oEzRG5BWNUZ3iLYITwakZjeDMhRGJRMNFItEY1SmRYE/sieDUHECIaYzInxoj4q3GiPxZvQdfCE4Ep/ZcBGcujEiYGi4SpsaIhFm9hAlv4S3CWnMAYa0xok7QGBFvNUZ1qhMQnAhOzWgEZy6MSCQaLhKJxqhOiQR7Yk+EmOYAQkxjRP7UGBFvNUbkz+o9sEVwIji15yI4c2FEwtRwkTA1RiTM6iVMeAtvEdaaAwhrjRF1gsaIeKsxqlOdgOBEcGpGIzhzYUQi0XCRSDRGdUok2BN7IsQ0BxBiGiPyp8aIeKsxIn9W74EtghPBqT0XwZkLIxKmhouEqTEiYVYvYcJbeIuw1hxAWGuMqBM0RsRbjVGd6gQEJ4JTMxrBmQsjEomGi0SiMapTIsGe2BMhpjmAENMYkT81RsRbjRH5s3oPbBGcCE7tuQjOXBiRMDVcJEyNEQmzegkT3sJbhLXmAMJaY0SdoDEi3mqM6lQn9EVwHjlyZDwLlosuusjt27fPPfHEExq9RIuyHNLu9eSTT851r9b4rbfecscff3zu7zFODVmRwIM9s/GFt9n44J/4Z4wAcUhzgXhLvKUe0n5CXtEYEW81RnWKt75a0FCIxzkNwdkkBYU7hbshQCLRQZJEojGqUyLBntgzRgDeIjiph3Q8oE7QGJFXNEZ1ird9EZzjjSsLFt9p1LIcsk5T1EUcknFmO7MvtvBWB0lfbO2X4S28NQR8OYR/4p8xAr4cIg6F4xD+GQ5beBsOW3irsfXVgkneTkNwNoH2TV4QVRPVF1sCbDhs4W04bOFtOGzhbThs4W04bOFtOGzhbThs4W04bOvGWwRnBy4wg8IMCg8QdJAkkWiMeFCiMSLeEm+Jt9pPiLcaI+Ktxoh4S7wtK94iOBGcOkKlWvgGdRKmhtoX27o96WKcmgsUBhQGZRUG+Cf+GSNAHCIOEYd0PKC+1RghOBGcmiUIzlwYEXg0XBS0GiMKPQo9Cj3tJ8RbjRHxVmNEvCXeEm+1nxSJtwhOBKdmGIIzF0ZFHJLCQENNYUBhQGGg/YQ4pDEi3mqMiLfEW+Kt9hPircYIwYng1CxBcObCiMCj4aLQ0xhR6FHoUehpPyHeaoyItxoj4i3xlnir/aRIvEVwIjg1wxCcuTAq4pAUBhpqCgMKAwoD7SfEIY0R8VZjRLwl3hJvtZ8QbzVGCE4Ep2YJgjMXRgQeDReFnsaIQo9Cj0JP+wnxVmNEvNUYEW+Jt8Rb7SdF4i2CE8GpGYbgzIVREYekMNBQUxhQGFAYaD8hDmmMiLcaI+It8ZZ4q/2EeKsxQnAiODVLEJy5MCLwaLgo9DRGFHoUehR62k+Itxoj4q3GiHhLvCXeaj8pEm8RnAhOzTAEZy6MijgkhYGGmsKAwoDCQPsJcUhjRLzVGBFvibfEW+0nxFuNEYITwalZguDMhRGBR8NFoacxotCj0KPQ035CvNUYEW81RsRb4i3xVvtJkXjbF8F56NCh8azb/PznP++efvppt3z5cj2aRIujR49Gf5s+fXqu71ljA2XGjBm5v2dfaIzHnXDCCbm/69sn49RQ+2KLPcNhC2/DYQtvw2ELb8NhC2/DYQtvw2ELb8NhC2/DYVs33v7t3/6t+4Vf+AW3bds2DUqqxf79+92cOXPctPHGlfXtCy+80D344IO5O+ALIAACIAACIAACIAACIAACIAAC9Ubg7LPPdv/wD/+QexDxCgQpOH2XcxSZuvXt01BgaUU2F3yxxZ7ax3yxhbfhsIW34bCFt+GwhbfhsIW34bCFt+GwhbfhsIW34bBN8hbBOYGzr1iAqIMhqu6ltQX2zEYM3mpG+XKIwiActvA2HLbwNhy28DYctvA2HLbwNhy2o8hbBCeCU3tUowWBR8OEQNEYsQIhGyNfDuGfmnu+2I5iYaDR5AFfHozwT40W/qkxIn+SPw0BX18pOw4hOBGcOsohOHvCyDcIUNBqeH2xLTvA6pFRuOfBCHtqtHx9hTgUDlt4Gw5beBsOW3gbDttR5C2CE8GpPQrB2RNGFHoaJp7Q8oS2zk9oNcN5gJAHIwpajRZ5RWNEXiGvkFe0n5QdbxGcCE7NUgRnTxhRGGiYKAwoDCgMtJ+UXRjoO0RY58EIe2q0yJ8aI/In+bPO+RPBieDUUQ7B2RNGJEwNEwmThFnnhKkZjhDLgxFCTKNFXtEYkVfIK+QV7Sdlx1sEJ4JTsxTB2RNGFAYaJgoDCgMKA+0nZRcG+g4R1nkwwp4aLfKnxoj8Sf6sc/5EcCI4dZRDcPaEEQlTw0TCJGHWOWFqhiPE8mCEENNokVc0RuQV8gp5RftJ2fEWwYng1CxFcPaEEYWBhonCgMKAwkD7SdmFgb5DhHUejLCnRov8qTEif5I/65w/EZwITh3lEJw9YUTC1DCRMEmYdU6YmuEIsTwYIcQ0WuQVjRF5hbxCXtF+Una8RXAiODVLEZw9YURhoGGiMKAwoDDQflJ2YaDvEGGdByPsqdEif2qMyJ/kzzrnTwQnglNHOQRnTxiRMDVMJEwSZp0TpmY4QiwPRggxjRZ5RWNEXiGvkFe0n5Qdb6ft3bt3POs27QZnzJihR5JqcfTo0ehfpk+fnvu7vn1aRwcPHnSzZ88eWJ+MU0ONPTVG8DYbI18O4Z+ae77YEm/DYQtvw2ELb8NhC2/DYQtvw2ELb8Nhm+QtM5wTOPs+RSz7iYGmSWsLxqmFjbXwecjii631xxPabLv4Yot/6gjhiy28DYctvA2HLbwNhy28DYctvA2HLbwNh22StwhOBKdmWqMFDqlhonDXGCGsEdaGgK+vEIe0j/liS0EbDlt4Gw5beBsOW3gbDttR5C2CE8GpPQrB2RNGFHoaJgQnghPBqf2EQk9jRLzVGBFvibfEW+0nxFuNUT/i7f8PFh8hsSIHi5wAAAAASUVORK5CYII=;" vertex="1" parent="1">
          <mxGeometry x="25" y="23" width="924" height="571" as="geometry" />
        </mxCell>
      </root>
    </mxGraphModel>
  </diagram>
</mxfile>
